<svg xmlns="http://www.w3.org/2000/svg" xmlns:xlink="http://www.w3.org/1999/xlink" width="643.042" height="608.967" viewBox="0 0 643.042 608.967"><defs><style>.a{fill:#fff;}.b{fill:#484a9f;}.c{fill:#afd7f2;}.d{fill:#4669b2;}.e{clip-path:url(#a);}.f{fill:#90bbe4;}.g{fill:#d1d1ff;}.h,.o{fill:#1b1b43;}.i{fill:#9192ff;}.j{fill:#ffbc96;}.k{fill:#d28572;}.l{fill:#1e2185;}.m{fill:#2e3085;}.n{fill:#5985c4;}.o{opacity:0.3;}.p{fill:#fe5b52;opacity:0.2;}.q{fill:#c5c5ff;}</style><clipPath id="a"><path class="a" d="M990.783,845.348a22.9,22.9,0,0,0,22.9,22.9H1268.06a22.9,22.9,0,0,0,22.9-22.9V690.579H990.783Z" transform="translate(-990.783 -690.579)"/></clipPath></defs><g transform="translate(-1036.957 -247.668)"><g transform="translate(1036.957 247.668)"><path class="b" d="M589.871,931.783l-.683-.715,4.3-4.1.683.715Zm8.58-8.221-.7-.705c1.4-1.374,2.8-2.792,4.163-4.215l.713.686C601.259,920.756,599.852,922.18,598.451,923.561Zm8.246-8.582-.732-.667c1.313-1.441,2.635-2.932,3.93-4.433l.749.648C609.343,912.033,608.015,913.531,606.7,914.979Zm7.78-9-.764-.628c1.236-1.5,2.481-3.062,3.7-4.626l.78.609C616.969,902.9,615.718,904.463,614.477,905.974ZM621.8,896.6l-.793-.591c1.162-1.561,2.334-3.174,3.484-4.794l.807.572C624.144,893.411,622.968,895.03,621.8,896.6Zm6.888-9.7-.82-.555q1.663-2.455,3.275-4.942l.83.537Q630.357,884.434,628.689,886.9Zm54.221-6.862a14.488,14.488,0,0,1-5.332-1.016l.367-.918a13.515,13.515,0,0,0,4.966.944c.246-.023.427,0,.64-.015l.048.988C683.37,880.03,683.1,880.016,682.91,880.035Zm6.572-1.691-.495-.857a10.746,10.746,0,0,0,3.946-3.986l.859.491A11.734,11.734,0,0,1,689.482,878.344Zm-54.323-1.429-.841-.522q1.561-2.518,3.077-5.067l.851.505Q636.726,874.389,635.159,876.915Zm37.4-1.379a17.349,17.349,0,0,1-3.258-5.133l.912-.384a16.388,16.388,0,0,0,3.07,4.844Zm22.868-7.441-.99-.021,0-.264a10.278,10.278,0,0,0-.874-4.2q-.224-.5-.492-.966l.862-.488q.288.509.532,1.046a11.268,11.268,0,0,1,.962,4.61Zm-53.8-1.038-.758-.636a37.65,37.65,0,0,1,4.216-4.284l.648.748A36.718,36.718,0,0,0,641.63,867.057Zm26.145-2.514a24.092,24.092,0,0,1-.17-2.864,25.415,25.415,0,0,1,.2-3.181l.982.124a24.447,24.447,0,0,0-.194,3.057,22.985,22.985,0,0,0,.164,2.745Zm-17.321-5.121-.521-.842a40.746,40.746,0,0,1,5.329-2.772l.391.91A39.745,39.745,0,0,0,650.454,859.422Zm38.82-1.021a21.77,21.77,0,0,0-5.057-2.816l.37-.918a22.756,22.756,0,0,1,5.286,2.947Zm-28.083-3.614-.26-.955a42.534,42.534,0,0,1,5.889-1.163l.123.982A41.562,41.562,0,0,0,661.191,854.787Zm17.422-.821a35.931,35.931,0,0,0-5.819-.611l.024-.99a36.932,36.932,0,0,1,5.979.628Zm-8.459-1-.931-.334a29.6,29.6,0,0,1,2.613-5.435l.844.517A28.6,28.6,0,0,0,670.154,852.966Zm6.05-9.9-.725-.674q.432-.464.886-.914a32.131,32.131,0,0,1,3.622-3.082l.585.8a31.058,31.058,0,0,0-3.51,2.987Q676.622,842.62,676.2,843.07Zm9.367-6.9-.439-.886a36.868,36.868,0,0,1,5.588-2.22l.289.946A36,36,0,0,0,685.571,836.169Zm11.165-3.635-.246-.959c1.935-.5,3.86-1.015,5.721-1.543l.27.952C700.612,831.515,698.679,832.036,696.736,832.534Zm11.448-3.254-.3-.945c1.909-.6,3.8-1.228,5.621-1.864l.327.935C712,828.046,710.1,828.676,708.184,829.28Zm11.239-3.931-.358-.923c1.853-.719,3.7-1.473,5.477-2.242l.392.908C723.141,823.867,721.287,824.626,719.423,825.349Zm10.935-4.723-.428-.892,5.34-2.593.433.89Zm10.685-5.191-.433-.89,5.341-2.6.433.89Zm10.681-5.192-.433-.89,5.34-2.6.433.89Zm10.681-5.192-.433-.89,5.341-2.6.433.89Zm10.681-5.193-.433-.89,5.341-2.6.433.89Z" transform="translate(-430.986 -575.92)"/><path class="c" d="M1007.627,279.4a5.074,5.074,0,0,0,.024.6H1137.8c-.339-10.729-9.678-19.332-21.132-19.332a22.087,22.087,0,0,0-10.125,2.429,23.085,23.085,0,0,0-11.248-20.637c-11.092-6.428-25.6-2.066-32.393,9.75a26,26,0,0,0-3.42,11.2,47.058,47.058,0,0,0-19.392-3.951C1022.162,259.463,1007.627,268.392,1007.627,279.4Z" transform="translate(-683.776 -239.497)"/><path class="d" d="M296.88,1056.776H189.559l.012-.383c.286-9.081,8.052-16.194,17.68-16.194a18.637,18.637,0,0,1,7.92,1.763,19.327,19.327,0,0,1,9.4-16.628,18.667,18.667,0,0,1,14.3-1.81,20.925,20.925,0,0,1,12.742,9.934,21.553,21.553,0,0,1,2.808,8.806,39.082,39.082,0,0,1,15.556-3.054c14.868,0,26.963,7.492,26.963,16.7a4.52,4.52,0,0,1-.022.538Zm-106.551-.742H296.2v-.124c0-8.8-11.763-15.958-26.221-15.958a38.064,38.064,0,0,0-15.73,3.2l-.489.224-.036-.536a20.786,20.786,0,0,0-2.753-9.015,20.185,20.185,0,0,0-12.29-9.586,17.938,17.938,0,0,0-13.735,1.735,18.627,18.627,0,0,0-9.029,16.576l.011.62-.552-.283a17.845,17.845,0,0,0-8.124-1.948C198.163,1040.941,190.807,1047.54,190.33,1056.033Z" transform="translate(-189.559 -712.743)"/></g><g transform="translate(1353.646 308.799)"><g transform="translate(0.494 117.441)"><g class="e"><g transform="translate(-47.215 61.544)"><path class="b" d="M875.56,850.572a29.419,29.419,0,0,1,54.644-4.308,17.406,17.406,0,0,1,14.851,26.773A23.964,23.964,0,0,1,961.939,908a26.576,26.576,0,0,1,38.952,24.322,27.367,27.367,0,0,1,47.822,2.216,44.093,44.093,0,0,1,72.338-18.374c16.173,2.606,27.949,20.776,23.722,36.6a33.711,33.711,0,0,1-9.191,56.82l-278.318.042-23.64-109.884Z" transform="translate(-833.624 -829.668)"/></g><path class="f" d="M1204.476,832.978c.106,2.479,0,6.663-2.479,8.1-4.134,2.394-7.386-3.417-8.9-6.338-1.81-3.488-1.348-7.815,2.746-9.37C1201.248,823.312,1204.277,828.352,1204.476,832.978Z" transform="translate(-1112.396 -771.722)"/><path class="f" d="M1699.6,1023.086c.106,2.478,0,6.663-2.479,8.1-4.134,2.394-7.386-3.417-8.9-6.338-1.81-3.488-1.347-7.815,2.746-9.37C1696.368,1013.42,1699.4,1018.46,1699.6,1023.086Z" transform="translate(-1411.512 -886.572)"/><circle class="f" cx="3.464" cy="3.464" r="3.464" transform="translate(66.647 29.752)"/><circle class="f" cx="5.274" cy="5.274" r="5.274" transform="translate(239.204 93.355) rotate(-26.428)"/></g></g><g transform="translate(0 56.984)"><path class="b" d="M1267.3,867.989H1012.931a23.424,23.424,0,0,1-23.4-23.4V689.329H1290.7V844.593A23.424,23.424,0,0,1,1267.3,867.989ZM990.524,690.319V844.593A22.432,22.432,0,0,0,1012.931,867H1267.3a22.432,22.432,0,0,0,22.407-22.407V690.319Z" transform="translate(-989.534 -629.367)"/><path class="a" d="M1268.06,539.112H1013.685a22.9,22.9,0,0,0-22.9,22.9v37.06h300.178v-37.06A22.9,22.9,0,0,0,1268.06,539.112Z" transform="translate(-990.289 -538.617)"/><path class="d" d="M1290.7,598.813H989.534V561.258a23.423,23.423,0,0,1,23.4-23.4H1267.3a23.424,23.424,0,0,1,23.4,23.4Zm-300.178-.99h299.188V561.258a22.432,22.432,0,0,0-22.407-22.407H1012.931a22.432,22.432,0,0,0-22.407,22.407Z" transform="translate(-989.534 -537.861)"/><g transform="translate(15.931 12.719)"><circle class="b" cx="12.556" cy="12.556" r="12.556" transform="matrix(0.199, -0.98, 0.98, 0.199, 0, 27.564)"/><g transform="translate(34.028 0)"><circle class="a" cx="12.556" cy="12.556" r="12.556" transform="translate(0 17.757) rotate(-45)"/><path class="d" d="M1140.672,607.98a13.051,13.051,0,1,1,13.051-13.051A13.065,13.065,0,0,1,1140.672,607.98Zm0-25.112a12.061,12.061,0,1,0,12.061,12.061A12.074,12.074,0,0,0,1140.672,582.869Z" transform="translate(-1122.916 -577.173)"/></g><g transform="translate(84.892 5.277)"><rect class="a" width="73.961" height="23.969" rx="11.984" transform="translate(0.495 0.495)"/><path class="d" d="M1306.691,608.28H1256.7a12.479,12.479,0,1,1,0-24.958h49.992a12.479,12.479,0,1,1,0,24.958ZM1256.7,584.312a11.489,11.489,0,1,0,0,22.979h49.992a11.489,11.489,0,1,0,0-22.979Z" transform="translate(-1244.219 -583.322)"/></g></g></g><g transform="translate(197.551 0)"><g transform="translate(1.645 30.163)"><path class="b" d="M1560,470.111c-20.046,17.548-54.621,5.453-65.365,19.466l30.7,24.31Z" transform="translate(-1493.874 -470.111)"/><path class="g" d="M1493.475,519.283h0a11.866,11.866,0,0,0,2.168,11.978l21.755,24.918,6.777-12.586Z" transform="translate(-1492.716 -499.817)"/></g><g transform="translate(67.844 66.143)"><path class="b" d="M1721.625,561c-12.486,23.536,7.212,54.417-3.965,68.087l-30.7-24.311Z" transform="translate(-1676.263 -560.998)"/><path class="g" d="M1701.336,695.891h0a11.865,11.865,0,0,1-12.156.635l-29.241-15.464,10.7-9.481Z" transform="translate(-1659.938 -627.804)"/></g><path class="b" d="M1772.214,393.916,1744.88,403.95l23.831,18.871Z" transform="translate(-1643.411 -393.916)"/><path class="f" d="M1637.274,438.135c-3.818,43.251-35.775,83.607-74.589,106.024l-35.37-27.979c14.841-46.694,42.481-80.109,86.128-96.916Z" transform="translate(-1511.974 -409.229)"/><path class="b" d="M1503.9,664.079,1488.561,674.7l43.884,34.75,6.828-17.394Z" transform="translate(-1488.561 -557.129)"/><g transform="translate(72.97 29.237)"><circle class="a" cx="16.416" cy="16.416" r="16.416" transform="translate(0 3.876) rotate(-6.78)"/><path class="d" d="M1702.414,507.664l-.1-.984a10.777,10.777,0,0,0,2.75-.667l.357.923A11.729,11.729,0,0,1,1702.414,507.664Zm-3.09-.078a11.6,11.6,0,0,1-2.963-.886l.408-.9a10.635,10.635,0,0,0,2.709.811Zm8.8-2.141-.587-.8a10.75,10.75,0,0,0,2.032-1.969l.775.615A11.685,11.685,0,0,1,1708.125,505.444Zm-14.385-.379a11.675,11.675,0,0,1-2.109-2.26l.806-.573a10.707,10.707,0,0,0,1.931,2.069Zm17.814-3.633-.878-.457a10.675,10.675,0,0,0,.963-2.66l.966.211A11.67,11.67,0,0,1,1711.554,501.432Zm-21.364-1.362a11.759,11.759,0,0,1-.672-3.017l.986-.087a10.767,10.767,0,0,0,.617,2.762Zm21.681-4.575a10.862,10.862,0,0,0-.514-2.784l.941-.306a11.779,11.779,0,0,1,.56,3.038Zm-21.243-1.355-.974-.174a11.6,11.6,0,0,1,.944-2.944l.893.424A10.657,10.657,0,0,0,1690.627,494.139Zm19.507-3.979a10.706,10.706,0,0,0-1.852-2.14l.657-.74a11.706,11.706,0,0,1,2.022,2.338Zm-17.1-1.088-.752-.643a11.7,11.7,0,0,1,2.3-2.066l.559.818A10.7,10.7,0,0,0,1693.03,489.072Zm12.908-2.636a10.652,10.652,0,0,0-2.677-.912l.191-.971a11.657,11.657,0,0,1,2.927,1Zm-8.276-.526-.323-.935a11.785,11.785,0,0,1,3.027-.617l.069.988A10.781,10.781,0,0,0,1697.662,485.91Z" transform="translate(-1682.934 -477.791)"/></g><rect class="h" width="6.323" height="54.914" rx="3.162" transform="translate(41.54 105.106) rotate(38.375)"/></g></g><g transform="translate(1464.259 670.964)"><path class="i" d="M1442.425,1465.1h-5.938v-.99h5.938Zm-11.876,0h-5.938v-.99h5.938Zm-11.876,0h-5.938v-.99h5.938Zm-11.876,0h-5.938v-.99h5.938Zm-11.876,0h-5.938v-.99h5.938Zm-11.876,0h-5.938v-.99h5.938Zm-11.876,0h-5.938v-.99h5.938Zm-11.876,0h-5.938v-.99h5.938Zm-11.876,0h-5.938v-.99h5.938Zm-11.876,0H1329.6v-.99h5.938Zm-11.881,0a18.925,18.925,0,0,1-5.982-1.021l.321-.936a17.953,17.953,0,0,0,5.671.967Zm119.481-.011-.037-.99a17.942,17.942,0,0,0,5.64-1.128l.348.926A18.962,18.962,0,0,1,1443.139,1465.086Zm-130.816-3.874a19.07,19.07,0,0,1-4.177-4.4l.818-.558a18.02,18.02,0,0,0,3.96,4.175Zm142.035-.332-.623-.77a18.018,18.018,0,0,0,3.84-4.285l.833.535A19.073,19.073,0,0,1,1454.358,1460.88Zm-148.786-9.567a18.994,18.994,0,0,1-.721-5.2v-.81h.99v.81a18.025,18.025,0,0,0,.683,4.926Zm155.253-.52-.958-.244a18.112,18.112,0,0,0,.55-4.433v-1.335h.99v1.335A19.043,19.043,0,0,1,1460.825,1450.793Zm-154.985-11.425h-.99v-5.938h.99Zm155.566-.525h-.99V1432.9h.99Zm-155.566-11.351h-.99v-5.938h.99Zm155.566-.525h-.99v-5.938h.99Zm-155.566-11.351h-.99v-5.938h.99Zm155.566-.525h-.99v-5.938h.99Zm-155.566-11.352h-.99V1397.8h.99Zm155.566-.525h-.99v-5.938h.99Zm-155.566-11.351h-.99v-5.938h.99Zm155.566-.525h-.99V1385.4h.99Zm-155.566-11.351h-.99v-3.956a19.271,19.271,0,0,1,.107-2.03l.984.1a18.27,18.27,0,0,0-.1,1.925Zm155.566-.525h-.99v-3.431a18.356,18.356,0,0,0-.162-2.433l.98-.131a19.239,19.239,0,0,1,.172,2.565Zm-153.945-10.9-.9-.412a18.99,18.99,0,0,1,3.376-5.046l.725.674A17.968,17.968,0,0,0,1307.461,1368.557Zm151.116-.46a18.044,18.044,0,0,0-3.333-4.691l.706-.694a18.982,18.982,0,0,1,3.515,4.948ZM1315.2,1360.24l-.476-.868a18.843,18.843,0,0,1,5.723-2.023l.177.974A17.843,17.843,0,0,0,1315.2,1360.24Zm135.407-.239a17.86,17.86,0,0,0-5.475-1.761l.147-.978a18.846,18.846,0,0,1,5.779,1.859Zm-11.329-1.964h-5.938v-.99h5.938Zm-11.876,0h-5.938v-.99h5.938Zm-11.876,0h-5.938v-.99h5.938Zm-11.876,0h-5.938v-.99h5.938Zm-11.876,0h-5.938v-.99h5.938Zm-11.876,0h-5.938v-.99h5.938Zm-11.876,0h-5.938v-.99h5.938Zm-11.876,0h-5.938v-.99h5.938Zm-11.876,0h-5.938v-.99h5.938Zm-11.876,0h-5.938v-.99h5.938Z" transform="translate(-1290.64 -1337.936)"/><rect class="f" width="155.566" height="110.008" rx="36.912" transform="translate(0)"/><g transform="translate(27.049 33.273)"><rect class="a" width="16.844" height="34.208" transform="translate(0 30.985)"/><rect class="a" width="16.844" height="33.109" transform="translate(28.208 32.084)"/><rect class="a" width="16.844" height="50.405" transform="translate(56.417 14.788)"/><rect class="a" width="16.844" height="65.193" transform="translate(84.625)"/></g><rect class="a" width="90.381" height="3.951" transform="translate(32.593 15.493)"/></g><g transform="translate(1098.375 468.128)"><g transform="translate(14.285 0)"><g transform="translate(88.411 68.218)"><path class="b" d="M624.71,995.943a46.912,46.912,0,0,0-17.246-24.764l-3.342-2.462,2.836,58.682,21.931-16.966Z" transform="translate(-604.123 -968.717)"/><path class="j" d="M699.516,1130.536,694.644,1121a9.684,9.684,0,0,0-6.041-4.929l-14.336-3.97-36.88-23.546-4.169-14.455-21.931,16.966.2,4.122a21.687,21.687,0,0,0,13.071,18.866l35.809,15.447,17.021.379c5.485,1.891,7.376,6.619,10.78,4.917,1.269-.634-3.688-8.794-3.688-8.794l8.227,9.078Z" transform="translate(-608.451 -1032.379)"/><rect class="k" width="7.447" height="1.135" transform="translate(23.683 61.479) rotate(-49.665)"/></g><g transform="translate(115.334 187.662)"><path class="l" d="M672.133,1272.923l26.831-2.369c17.466-1.542,32.659,12.563,33.51,31.109l6.063,132.146-37.012,1.153Z" transform="translate(-672.133 -1270.439)"/><g transform="translate(32.368 159.615)"><path class="m" d="M753.9,1677.23l1.135,36.5H809.88l-27.045-22.506-1.7-17.589Z" transform="translate(-753.898 -1673.637)"/><rect class="a" width="14.564" height="2.269" transform="matrix(0.792, -0.61, 0.61, 0.792, 16.707, 25.579)"/></g></g><g transform="translate(8.994 171.766)"><g transform="translate(126.226 175.511)"><path class="l" d="M722.366,1677.23l1.135,36.5h54.847L751.3,1691.226l-1.7-17.589Z" transform="translate(-722.366 -1673.637)"/><rect class="a" width="14.565" height="2.269" transform="matrix(0.792, -0.61, 0.61, 0.792, 16.707, 25.579)"/></g><path class="b" d="M570.589,1412.982H525.2l-32.352-99.542-4.528-13.935-64.682-.284a17.9,17.9,0,0,1-11.064-4.641,26.334,26.334,0,0,1-8.794-23.819l5.674-40.477,96.093,12.494a43.154,43.154,0,0,1,36.687,34Z" transform="translate(-403.511 -1230.285)"/><path class="h" d="M631.073,1405.141l-8.806,13.935-4.528-13.935Z" transform="translate(-532.932 -1335.92)"/></g><g transform="translate(0 64.814)"><path class="n" d="M476.045,1059.738q-.7,2.809-1.452,5.629l-3.4,13.9-44.823-1.861-32.273-1.339a13.863,13.863,0,0,1-13-16.681l15.047-72.41a27.487,27.487,0,0,1,24.329-23.07l36.823-3.79,11.915,3.4c11.632,6.241,11.643,17.555,12.2,24.965C483.84,1020.918,480.833,1040.561,476.045,1059.738Z" transform="translate(-380.791 -960.117)"/><path class="o" d="M473.642,1130.018c-.465,1.872,29.436,6.06,28.937,7.943l-3.4,13.9L454.351,1150c-15.66-11.813-21.527-37.515-27.234-69.72Z" transform="translate(-408.778 -1032.711)"/><path class="h" d="M521.622,1013.027a26.949,26.949,0,0,0,6.7,5.31,22.125,22.125,0,0,0,8,2.7,13.467,13.467,0,0,0,8.144-1.2,8.373,8.373,0,0,0,4.375-6.689l.443.03a9.157,9.157,0,0,1-1.128,4.319,8.6,8.6,0,0,1-3.2,3.2,14,14,0,0,1-8.775,1.449,21.83,21.83,0,0,1-8.34-2.988,23.547,23.547,0,0,1-6.558-5.855Z" transform="translate(-465.665 -992.082)"/><path class="h" d="M632.4,1060.85l-.849-.06c.815-11.417-.011-25.449-2.455-41.705l.842-.125C632.393,1035.277,633.221,1049.371,632.4,1060.85Z" transform="translate(-530.8 -995.666)"/></g><g transform="translate(135.599 104.058)"><rect class="h" width="42.176" height="8.322" transform="translate(0 66.195)"/><path class="n" d="M884.969,1133.767H800.24l38.96-74.516h84.729Z" transform="translate(-769.79 -1059.25)"/></g><g transform="translate(18.803)"><path class="h" d="M474.776,801.632c-9.929-9.788-28.653-5.674-28.369,10.78-20.426,5.39-21.561,27.8-13.334,39.291l7.093.567,1.56-8.369,4.114,8.511,19.858,1.277Z" transform="translate(-428.289 -796.393)"/><path class="j" d="M543.463,902.07v31.263c0,.284-.012.556-.034.828a10.494,10.494,0,0,1-13.084,9.339,21.1,21.1,0,0,1-15.83-20.607l.159-20.823Z" transform="translate(-480.38 -860.235)"/><path class="h" d="M556.47,931.6v17.748c0,.284-.011.556-.034.829-8.363-1.373-18.032-11.053-20.392-21.594Z" transform="translate(-493.387 -876.254)"/><path class="j" d="M559.968,865.629a56.32,56.32,0,0,1-1.781,7.444c-2.5,7.932-6.979,14.514-15,13.368-18.86-2.7-29.356-22.128-29.356-22.128l12.9-14.752,8.658-11.643,25.952,11.211A97.6,97.6,0,0,1,559.968,865.629Z" transform="translate(-479.966 -821.479)"/><path class="h" d="M508.316,837.958c8.277-.265,14.679-4.481,17.4-16.454,0,0,19.291,16.643,28.747,7.754,7.919-7.444-5.515-24.569-27.751-26.609a31.5,31.5,0,0,0-22.523,6.872c-10.777,8.635-11.807,28.721-1.736,35.672Z" transform="translate(-468.874 -800.095)"/><path class="b" d="M503.064,818.226a8.842,8.842,0,0,1,.735-5.988,13.3,13.3,0,0,1,3.885-4.781,13.683,13.683,0,0,1,5.559-2.6,10.02,10.02,0,0,1,5.991.46,33.155,33.155,0,0,0-5.13,2.075,27.846,27.846,0,0,0-4.335,2.755,25.079,25.079,0,0,0-3.71,3.509A20.8,20.8,0,0,0,503.064,818.226Z" transform="translate(-473.315 -801.357)"/><g transform="translate(28.071 29.551)"><ellipse class="j" cx="6.454" cy="7.798" rx="6.454" ry="7.798" transform="translate(0 4.797) rotate(-21.816)"/><path class="h" d="M518.156,894.642a9.244,9.244,0,0,0-.251-3.893,10.6,10.6,0,0,0-2.04-3.341l.279-.345a5.661,5.661,0,0,1,2.437,7.707Z" transform="translate(-509.267 -880.72)"/></g><g transform="translate(51.452 32.525)"><path class="p" d="M625.877,907.918a56.36,56.36,0,0,1-1.781,7.444,4.681,4.681,0,0,1,1.781-7.444Z" transform="translate(-597.327 -896.293)"/></g></g><g transform="translate(18.339 91.586)"><g transform="translate(0 7.933)"><path class="b" d="M454.162,1047.784l-27.045,12.861,8.482,20.106,28.357-13.078Z" transform="translate(-427.117 -1047.784)"/><path class="q" d="M746.639,1222.164c-.75-.376-1.219-.627-1.219-.627l.271-.534s.5.24,1.224.629Z" transform="translate(-619.413 -1152.43)"/><path class="j" d="M578.495,1150.666c-.874,1.725-7.569-1.328-10.689-2.859,2.417,1.339,6.581,3.971,4.732,5.413-1.486,1.146-4.777-1.294-15.558-5.765,1.634.771,11.268,5.356,8.84,7.093-2.644,1.884-13.992-2.27-13.992-2.27l-9.838,5.288H530.642l-40.829.261a29.769,29.769,0,0,1-7.569-.953A33.943,33.943,0,0,1,468.967,1150a33.345,33.345,0,0,1-6.3-7.07,37.763,37.763,0,0,1-3.37-6.309l-10.769-25.51,28.358-13.084,14.8,30.037,48.795,10.6,13.617-3.4c2.928-.738,7.069.5,9.645,2.076C570.03,1141.179,579.312,1149.021,578.495,1150.666Z" transform="translate(-440.053 -1078.135)"/></g><path class="p" d="M504.559,1216.969a12.362,12.362,0,0,1-.738,4.221,33.945,33.945,0,0,1-13.277-6.877,33.336,33.336,0,0,1-6.3-7.07,12.486,12.486,0,0,1,20.313,9.725Z" transform="translate(-461.63 -1134.519)"/><path class="k" d="M680.626,1194.618a92.625,92.625,0,0,1,10.311-2.826,36.929,36.929,0,0,1,5.326-.759,16.08,16.08,0,0,1,2.738.072c.456.091.909.211,1.364.318.433.153.855.327,1.284.491a44,44,0,0,1,9.009,5.871c2.8,2.229,5.436,4.622,8,7.119l.118.115.025.145a2.15,2.15,0,0,1-.269,1.535,1.829,1.829,0,0,1-.617.544,1.762,1.762,0,0,1-.709.247,5.854,5.854,0,0,1-2.549-.25,25.328,25.328,0,0,1-4.4-1.849c-1.389-.742-2.758-1.516-4.085-2.348-1.35-.8-2.632-1.695-3.947-2.545l.6-.958A70.473,70.473,0,0,1,709.56,1204a18.071,18.071,0,0,1,3.045,2.8,4.015,4.015,0,0,1,.591,1,1.85,1.85,0,0,1,.135.692,1.326,1.326,0,0,1-.291.774,2.076,2.076,0,0,1-1.152.643,6.659,6.659,0,0,1-1.092.156l-.111.011-.121-.051-12.318-5.161.368-.865a42.942,42.942,0,0,1,5.631,3.039,7.672,7.672,0,0,1,2.449,2.281,1.33,1.33,0,0,1,.1,1.085,1.461,1.461,0,0,1-.732.752,4.085,4.085,0,0,1-1.695.38,23.915,23.915,0,0,1-6.339-.976c-2.052-.542-4.068-1.181-6.062-1.9l.15-.418c1.99.667,4.016,1.254,6.056,1.741a23.406,23.406,0,0,0,6.151.8c.965-.038,2.116-.462,1.646-1.1a7.172,7.172,0,0,0-2.2-1.935,42.169,42.169,0,0,0-5.539-2.891l.369-.866,12.363,5.052-.232-.04a5.718,5.718,0,0,0,.888-.129,1.126,1.126,0,0,0,.58-.279c.173-.068-.059-.678-.447-1.134a17.174,17.174,0,0,0-2.862-2.592,69.632,69.632,0,0,0-6.639-4.352l.6-.958c1.3.835,2.571,1.738,3.9,2.529,1.309.828,2.65,1.592,4,2.325a24.319,24.319,0,0,0,4.188,1.784,4.946,4.946,0,0,0,2.051.24l.219-.039a1.25,1.25,0,0,0,.166-.085c.132-.038.171-.142.26-.207a1.142,1.142,0,0,0,.121-.716l.143.26c-2.511-2.476-5.153-4.851-7.878-7.1a43.237,43.237,0,0,0-8.727-5.854l-1.2-.476c-.409-.1-.814-.213-1.226-.3a15.365,15.365,0,0,0-2.581-.1,37.227,37.227,0,0,0-5.233.634,92.048,92.048,0,0,0-10.3,2.579Z" transform="translate(-580.269 -1126.375)"/><path class="h" d="M448.435,1069.036l-.357-.773,27.983-12.91-11.655-27.274.783-.334,11.98,28.036Z" transform="translate(-439.78 -1027.744)"/></g></g><g transform="translate(0 240.419)"><rect class="h" width="1.485" height="127.851" transform="translate(43.798 11.915)"/><rect class="f" width="89.079" height="17.589" rx="8.794"/><path class="f" d="M14.677,0H45.466A14.677,14.677,0,0,1,60.143,14.677v0a0,0,0,0,1,0,0H0a0,0,0,0,1,0,0v0A14.677,14.677,0,0,1,14.677,0Z" transform="translate(14.468 133.411)"/></g><g transform="translate(82.744 178.574)"><g transform="translate(47.007 7.809)"><rect class="h" width="1.485" height="237.485" transform="translate(0.025 0.792) rotate(-32.247)"/><rect class="h" width="237.485" height="1.485" transform="translate(0 200.838) rotate(-57.738)"/></g><rect class="f" width="222.036" height="16.744"/></g></g><g transform="translate(1153.33 264.665)"><path class="d" d="M529.925,431.485a46.4,46.4,0,1,1,46.4-46.4A46.454,46.454,0,0,1,529.925,431.485Zm0-91.813a45.412,45.412,0,1,0,45.412,45.412A45.463,45.463,0,0,0,529.925,339.672Z" transform="translate(-483.524 -316.414)"/><g transform="translate(27.292)"><circle class="f" cx="50.487" cy="50.487" r="50.487"/><path class="b" d="M637.332,377.116l-27.989-21.942.916-1.169L637.3,375.2l15.076-12.766.96,1.133Z" transform="translate(-586.827 -319.671)"/></g></g><g transform="translate(1066.492 423.536)"><g transform="translate(0 0)"><path class="a" d="M303.918,685H274.1c-4.8,0-8.687,3.344-8.687,7.47v25.637c0,4.126,3.889,7.47,8.687,7.47h21.277l9.168,10.886V725.55c4.5-.279,8.057-3.5,8.057-7.443V692.47C312.605,688.344,308.716,685,303.918,685Z" transform="translate(-264.909 -684.536)"/><path class="d" d="M303.9,737.235,294,725.317H273.3c-5.038,0-9.137-3.573-9.137-7.965V691.715c0-4.392,4.1-7.965,9.137-7.965h29.41c5.038,0,9.137,3.573,9.137,7.965v25.637c0,4-3.45,7.377-7.947,7.89Zm-30.6-52.5c-4.412,0-8,3.129-8,6.975v25.637c0,3.846,3.589,6.975,8,6.975h21.278l8.186,9.854v-9.848l.527-.033c4.161-.261,7.42-3.313,7.42-6.949V691.715c0-3.846-3.589-6.975-8-6.975Z" transform="translate(-264.166 -683.75)"/></g><path class="d" d="M299.679,729.963,289.416,715.14l2.441-1.69,7.552,10.909L310.784,704l2.592,1.449Z" transform="translate(-276.908 -695.54)"/></g><rect class="h" width="608.234" height="1.485" transform="translate(1056.925 855.15)"/></g></svg>