<svg xmlns="http://www.w3.org/2000/svg" width="805.16" height="530.398" viewBox="0 0 805.16 530.398"><defs><style>.a{fill:none;stroke:#4669b2;stroke-width:1.5px;}.b,.d{fill:#4669b2;}.b{opacity:0.3;}.c{fill:#484a9f;}.e{fill:#fff;}.f{fill:#90bbe4;}.g{fill:#afd7f2;}.h{fill:#eea886;}.i{fill:#cf8c6c;}.j{fill:#db9c7c;}.k{fill:#3d416b;}.l{fill:#292c47;}.m{fill:#cfbeb6;}.n{fill:#2c2c2c;}.o{fill:#eddad3;}.p{fill:#a77860;}.q{fill:#faa146;}.r{fill:#23263d;}.s{fill:#5985c4;}.t{fill:#efaa88;}.u{fill:#1d2133;}.v{fill:#23344a;}.w{fill:#75a8d9;}.x{fill:#345aa9;}.y{fill:#343a57;}.z{fill:#3d476e;}.aa{fill:#fab46c;}.ab{fill:#f9cdba;}.ac{fill:#3c6aaa;}</style></defs><g transform="translate(-40.508 -51.871)"><g transform="translate(457.328 174.666)"><rect class="a" width="64.699" height="291.441"/></g><g transform="translate(457.331 285.445)"><path class="b" d="M396.5,218.267V402.039c-30.329,6.574-51.217,12.92-64.695,19.127v-202.9Z" transform="translate(-331.81 -218.267)"/></g><g transform="translate(457.331 303.608)"><path class="c" d="M396.5,231.189V394.535c-30.329,5.844-51.217,17.643-64.695,23.162V231.189Z" transform="translate(-331.81 -231.189)"/></g><g transform="translate(536.002 95.354)"><path class="a" d="M452.482,83.024V421.139c-24.814,7.71-46.265,15.236-64.7,22.611V83.024Z" transform="translate(-387.782 -83.024)"/></g><g transform="translate(536.003 204.59)"><rect class="b" width="64.699" height="237.563"/></g><g transform="translate(536.003 223.744)"><path class="c" d="M452.482,392.215l-64.7,14.491V174.369h64.7Z" transform="translate(-387.782 -174.369)"/></g><g transform="translate(615.579 52.621)"><path class="a" d="M509.1,52.621v362.45c-24.814,8.622-46.264,18.834-64.7,27.082V52.621Z" transform="translate(-444.398 -52.621)"/></g><g transform="translate(615.58 129.241)"><path class="b" d="M509.1,388.725l-64.7,11.361V107.133h64.7Z" transform="translate(-444.398 -107.133)"/></g><g transform="translate(615.58 169.072)"><path class="c" d="M509.1,376.5l-64.7,15.756V135.472h64.7Z" transform="translate(-444.398 -135.472)"/></g><g transform="translate(378.563 271.626)"><path class="a" d="M340.465,208.435V455.957c-5.271,5.3-6.98,10.536-5.957,15.753H275.77V208.435Z" transform="translate(-275.77 -208.435)"/></g><g transform="translate(378.562 383.11)"><rect class="b" width="64.699" height="136.193"/></g><g transform="translate(378.562 401.709)"><path class="c" d="M340.468,417.061l-64.7,5.51V300.984h64.7Z" transform="translate(-275.769 -300.984)"/></g><g transform="translate(299.064 334.146)"><path class="a" d="M283.905,252.916V464.387c-5.272,4.529-6.983,9-5.96,13.461H219.209V252.916Z" transform="translate(-219.209 -252.916)"/></g><g transform="translate(299.063 436.79)"><rect class="b" width="64.699" height="136.193"/></g><g transform="translate(299.063 455.389)"><path class="c" d="M283.907,455.252l-64.7,5.511V339.176h64.7Z" transform="translate(-219.208 -339.176)"/></g><g transform="translate(758.292 223.869)"><path class="c" d="M633.309,327.395c0,84.462-19.56,152.935-43.687,152.935s-43.689-68.473-43.689-152.935,19.56-152.937,43.689-152.937S633.309,242.929,633.309,327.395Z" transform="translate(-545.933 -174.458)"/></g><g transform="translate(771.289 288.005)"><path class="d" d="M605.914,308.889c0,49.042-11.357,88.8-25.367,88.8s-25.366-39.759-25.366-88.8,11.357-88.8,25.366-88.8S605.914,259.845,605.914,308.889Z" transform="translate(-555.18 -220.088)"/></g><g transform="translate(782.633 358.451)"><path class="e" d="M586.032,281l-4.642-10.8-6.748,15.7-6.751-15.7L563.251,281,570,296.7l-6.748,15.7,4.641,10.8,6.751-15.7,6.748,15.7,4.642-10.8-6.749-15.7Z" transform="translate(-563.251 -270.208)"/></g><g transform="translate(696.003 424.94)"><path class="f" d="M554.411,317.513,539.746,321.2l1.969,3.69c-27.473,22.44-40.1,55.394-40.1,55.394l8.318,10.982s7.594-39.859,33.8-62.578l2.524,4.728Z" transform="translate(-501.617 -317.513)"/></g><g transform="translate(696.003 287.811)"><path class="f" d="M553.407,294.985l-7.867-16.151-2.633,4.7C517.023,260.167,510.2,219.95,510.2,219.95l-8.585,10.871s12.02,33.379,39.178,56.492l-2.054,3.668Z" transform="translate(-501.617 -219.95)"/></g><path class="g" d="M773.154,288.306s-84.935-30.152-198.936,27.966-81.633,111.684-417.119,76.5l-83.337,90.22s427.139,40.568,505.6-75.537,182.4-109.029,193.793-104.129S773.154,288.306,773.154,288.306Z" transform="translate(20.869 92.412)"/><g transform="translate(40.508 353.592)"><g transform="translate(152.342 45.028)"><path class="h" d="M144.261,302.859s3.4-3.113,3.931-3.571,2.624-.671,4.865-.335c2.176.329,5.268.453,5.493.772a1.875,1.875,0,0,1,.582,1.5,3.811,3.811,0,0,1-.534,1.855,2.317,2.317,0,0,1-.157,2.231,2.015,2.015,0,0,1-.534,2.179,1.687,1.687,0,0,1-.353,1.827,15.287,15.287,0,0,0-2.654.533c-.7.3-5.927.3-9.892-.105C145.007,309.74,142.519,308.307,144.261,302.859Z" transform="translate(-143.642 -298.788)"/></g><g transform="translate(157.904 49.628)"><path class="i" d="M149.18,302.06a11.363,11.363,0,0,1-1.529,2.564c-.568.454,3.667,3.355,3.667,3.355S151.709,303.294,149.18,302.06Z" transform="translate(-147.599 -302.06)"/></g><g transform="translate(158.74 45.916)"><g transform="translate(0)"><path class="j" d="M156.079,299.425s-5.732.322-5.794,1.251a1.456,1.456,0,0,0,.479,1.31l-2.3,1.2s-1.074,1.657,1.043,2.342c0,0-1.161,1.442.963,1.86,0,0-.343,1.294.606,1.66s4.63.007,4.63.007.776-.419.387-1.823a1.976,1.976,0,0,0,.537-2.177,3.213,3.213,0,0,0,.374-2.763,2.733,2.733,0,0,0-.33-2.865S156.323,299.409,156.079,299.425Z" transform="translate(-148.193 -299.419)"/></g></g><g transform="translate(155.507 45.497)"><path class="h" d="M147.457,299.121a19.5,19.5,0,0,1,5.186,3.333c.358.392.633.839.4,1.32s-1.216.758-2.811.145a14.471,14.471,0,0,0-3.938-.672S144.841,302.137,147.457,299.121Z" transform="translate(-145.893 -299.121)"/></g><g transform="translate(160.41 45.845)"><path class="h" d="M156.523,302.314s-6.218-.394-6.776-.1-.427-1.983.067-2.2a44.918,44.918,0,0,1,6.191-.637A1.936,1.936,0,0,1,156.523,302.314Z" transform="translate(-149.381 -299.368)"/></g><g transform="translate(162.558 45.656)"><path class="h" d="M154.278,299.234s10.162.738,10.158,1.919c-.006,1.133-2.373,1.926-10.161,1.051C146.7,301.349,154.278,299.234,154.278,299.234Z" transform="translate(-150.91 -299.234)"/></g><g transform="translate(102.546 194.088)"><path class="d" d="M118.882,405.428s5.469,3.13,7.941,4.288,12.022,1.365,12.976,2.249.651,3.74-.926,4.054-13.162,1.524-17.045.672-11.1.774-12.71.253-.7-9.177-.105-11.126S118.882,405.428,118.882,405.428Z" transform="translate(-108.213 -404.838)"/></g><g transform="translate(103.345 191.031)"><path class="k" d="M118.358,402.663l.294,3.647s-7.233,1.459-9.87.389l.492-3.678Z" transform="translate(-108.782 -402.663)"/></g><g transform="translate(5.23 214.224)"><path class="d" d="M50.295,420.317s5.2,3.56,7.572,4.911,11.873,2.328,12.755,3.283.346,3.781-1.251,3.966-13.242.462-17.044-.7-11.125-.118-12.689-.769.041-9.2.789-11.1S50.295,420.317,50.295,420.317Z" transform="translate(-38.977 -419.164)"/></g><g transform="translate(7.103 211.361)"><path class="k" d="M50.44,417.647l-.686,3.5s-7.327.871-9.445-.388l.786-3.628Z" transform="translate(-40.309 -417.127)"/></g><path class="l" d="M110.4,346.4c-.706,2.346-2.508,7.361-4.446,12.612-.432,1.169-.87,2.347-1.306,3.511-2.634,7.064-5.129,13.579-5.129,13.579-3.806,8.689-12.723,27.221-17.04,30.475-5.823,4.388-31.607,50.59-31.607,50.59l-11.615-1.376s12.63-34.537,17.886-42.176c5.87-8.533,15.082-19.685,16.065-29.161.616-5.948,4.3-24.423,4.3-24.423s4.312-20.709,13.638-34.235C93.468,322.415,110.4,346.4,110.4,346.4Z" transform="translate(-33.634 -242.94)"/><g transform="translate(55.299 95.782)"><path class="l" d="M108.457,340.491s32.343,24.118,35.946,29.1,1.413,12.854.873,15.277-10.819,42.223-11.087,46.4c0,0-9.97,2.463-12.529-.772,0,0,3.46-37.8,5.75-45.614s-8.669-12.947-15-15.776-38.366-18.224-37.8-24.457c.392-4.316.967-8.369.967-8.369S81.871,331.2,108.457,340.491Z" transform="translate(-74.599 -334.897)"/></g><path class="d" d="M101.333,295.182s21,3.95,30.734,5.161c3.053.379,31.907,2.582,33.088,2.763s.287,9.509.287,9.509-32.217-2.145-34.146-1.976-31.865-1.916-34.623-3.916-4.776-5.29-3.046-8.5C96.052,293.723,101.333,295.182,101.333,295.182Z" transform="translate(-11.844 -255.313)"/><g transform="translate(54.986 31.665)"><path class="m" d="M107.841,294.493s3.619,10.6,3.642,16.657-5.619,24.24-6.014,27.6c-1.064,9.059,3.08,20.239,3.08,20.239L75.184,365.4a208.46,208.46,0,0,1-.789-21.1c.163-11.513,3.5-20.958,4.325-27.542C81.532,294.3,99.932,289.28,99.932,289.28Z" transform="translate(-74.376 -289.28)"/></g><g transform="translate(82.035 3.847)"><path class="h" d="M115.371,276.312s3.011,5.581,1.518,6.452c-1.233.715,1.446,6.2,1.8,7.092s-2.235,1.546-2.783,2.121-2.177,7.667-4.305,7.882-11.721-3.123-14.332-5.839-4.755-14.982-3.012-20.157S110.055,266.555,115.371,276.312Z" transform="translate(-93.62 -269.488)"/></g><g transform="translate(81.799 12.035)"><path class="h" d="M105.268,295.973s-.256.566-.637,1.449c-.159.37-.34.8-.531,1.255-.148.353-.3.724-.458,1.11a35.212,35.212,0,0,0-2.24,6.823c-.3,2.73-7.948-11.6-7.948-11.6A132.35,132.35,0,0,0,99.567,277.3C102.087,267.706,105.268,295.973,105.268,295.973Z" transform="translate(-93.453 -275.314)"/></g><g transform="translate(79.555)"><path class="n" d="M116.688,278.629a8.581,8.581,0,0,0-2.51-10.5c-5.584-4.473-15.883,3.379-17.044,3.678s-7.559.7-4.42,12.313c2.835,10.491,3.307,9.662,3.307,9.662s2.077-5.066,3.285-5.944c1.886-1.369,6.02-1.039,6.02-1.039s-1.969-5.23,1.11-5.971S113.572,277.474,116.688,278.629Z" transform="translate(-91.856 -266.751)"/></g><g transform="translate(85.094 14.497)"><path class="h" d="M100.448,279.617c-.271-.718-1.15-3.8-3.795-1.99s1.649,7.624,2.11,7.7S102.732,285.654,100.448,279.617Z" transform="translate(-95.797 -277.065)"/></g><g transform="translate(80.542 30.441)"><path class="o" d="M94.364,288.409s5.189,7.888,8.35,11.2l-.985,5.469-9.171-15.444Z" transform="translate(-92.558 -288.409)"/></g><path class="p" d="M104.034,291.149s-.256.566-.637,1.449c-.159.37-.34.8-.531,1.255-5.119-3.8-6.333-6.56-6.369-6.644A52.959,52.959,0,0,0,104.034,291.149Z" transform="translate(-10.419 -258.455)"/><path class="q" d="M99.994,296.607s.943,3.588.682,4.977c-.1.52-1.553-.136-1.553-.136Z" transform="translate(-9.354 -254.643)"/><path class="r" d="M108.406,339.929s-.949-2.907-1.153-3.646l-32.529,6.062.318,3.99S98.833,342.049,108.406,339.929Z" transform="translate(-19.249 -238.553)"/><g transform="translate(17.701 107.05)"><path class="s" d="M63.663,358.21l-13.6-1.691a2.526,2.526,0,0,1-2.193-2.815l1.065-8.577a2.529,2.529,0,0,1,2.815-2.194l13.6,1.691a2.525,2.525,0,0,1,2.193,2.815l-1.065,8.575A2.527,2.527,0,0,1,63.663,358.21Zm-12.121-13.6a.831.831,0,0,0-.926.722l-1.065,8.575a.83.83,0,0,0,.721.925l13.6,1.692a.833.833,0,0,0,.928-.722l1.065-8.577a.831.831,0,0,0-.722-.925Z" transform="translate(-47.849 -342.913)"/></g><g transform="translate(0 111.755)"><rect class="s" width="47.883" height="30.811" transform="translate(3.799 0) rotate(7.082)"/></g><g transform="translate(2.112 111.755)"><rect class="c" width="47.884" height="13.682" transform="matrix(0.992, 0.123, -0.123, 0.992, 1.687, 0)"/></g><g transform="translate(22.759 124.678)"><rect class="s" width="6.603" height="1.888" transform="matrix(0.992, 0.123, -0.123, 0.992, 0.233, 0)"/></g><g transform="translate(21.528 96.139)"><path class="t" d="M50.628,347.672a5.486,5.486,0,0,1,.039-1.746s.42-.978.677-1.694a4.811,4.811,0,0,0,.174-.559A10,10,0,0,1,52.4,340.6c.663-1.255,3.455-5.451,3.455-5.451l4,1.746,3.753.488s.569,8.606.086,9.847a3.726,3.726,0,0,1-.157.346,12.776,12.776,0,0,1-1.643,2.049c-.122.183-1.455,1.92-2.108,1.944a2.135,2.135,0,0,1-1.913-.817,5.1,5.1,0,0,1-2.7-.776,3.182,3.182,0,0,1-2.519-1.234S50.98,348.6,50.628,347.672Z" transform="translate(-50.572 -335.151)"/></g><path class="d" d="M106.6,303.62s-19.2,14.91-26.088,23.133c-2.16,2.581-15.318,28.215-16.184,29.192s-10.616-2.083-10.616-2.083,15.6-32.089,16.59-33.961,28.765-27.748,32.238-29.092,3.914.436,5.836,3.929C111.068,299.636,106.6,303.62,106.6,303.62Z" transform="translate(-27.772 -257.177)"/><g transform="translate(51.112 31.665)"><path class="d" d="M110.17,315.523c-.732,2.014-1.42,4.051-2.061,6.1h0c-1.411,4.5-2.606,9.053-3.618,13.489-.363,1.581-.7,3.15-1.015,4.695a90.715,90.715,0,0,1-13.628,31.951s-14.791-1.181-18.229-3.628A264.07,264.07,0,0,1,77.3,326.468c.365-1.58.753-3.154,1.164-4.711h0c4.352-16.476,11.365-31.3,22.58-32.475C101.264,289.541,114.024,304.955,110.17,315.523Z" transform="translate(-71.62 -289.28)"/></g><path class="d" d="M79.6,316.776a84.262,84.262,0,0,1-14.361,37.471c-1.571,2.267,17.822,5.194,17.822,5.194Z" transform="translate(-23.133 -246.464)"/><path class="u" d="M90.122,304.122c-4.458,4.817-14.458,16.327-14.458,16.327.365-1.58.753-3.154,1.164-4.711h0C80.344,312.215,89.971,304.244,90.122,304.122Z" transform="translate(-18.868 -251.596)"/><g transform="translate(42.104 45.399)"><path class="c" d="M114.443,300.489s-1.962,13.273-13.385,14.174c-10.231.808-25.078,5.943-29.892,9.884l-5.955,5.194,1.431-6.884s4.3-10.91,34.291-9.549c0,0,9.2,1.719,12.2-14.255C113.129,299.051,114.637,299.837,114.443,300.489Z" transform="translate(-65.211 -299.051)"/></g></g><g transform="translate(541.577 220.618)"><g transform="translate(139.034 39.805)"><path class="h" d="M494.894,203.405a27.427,27.427,0,0,1-3.618,1.708c-1.355.437-.031-4.648-.031-4.648Z" transform="translate(-490.666 -200.465)"/></g><g transform="translate(138.755 28.593)"><path class="h" d="M490.467,202.778s.328-3.934.4-4.534,1.161-1.879,2.544-3.241a11.055,11.055,0,0,1,4.187-2.512,1.692,1.692,0,0,1,1.279.611,3.279,3.279,0,0,1,.742,1.479,1.981,1.981,0,0,1,1.2,1.494,1.729,1.729,0,0,1,.932,1.682s.97.468.841,1.358a12.991,12.991,0,0,0-1.36,1.876c-.267.593-3.522,3.6-6.25,5.649C494.975,206.641,492.539,207.221,490.467,202.778Z" transform="translate(-490.467 -192.488)"/></g><g transform="translate(143.167 35.339)"><path class="i" d="M493.606,197.374a9.649,9.649,0,0,1,.529,2.5c-.093.617,4.378.54,4.378.54S495.918,196.678,493.606,197.374Z" transform="translate(-493.606 -197.288)"/></g><g transform="translate(142.539 28.595)"><path class="j" d="M496.129,192.833s-3.421,3.535-2.919,4.158a1.251,1.251,0,0,0,1.063.545l-.748,2.093s.287,1.667,2.017.866c0,0,.108,1.584,1.688.613,0,0,.536,1.013,1.348.693a16.42,16.42,0,0,0,2.917-2.686s.253-.79-.817-1.389a1.707,1.707,0,0,0-.933-1.682,1.839,1.839,0,0,0-1.179-1.51s-.284-2.083-2.061-2.044C496.5,192.49,496.271,192.683,496.129,192.833Z" transform="translate(-493.159 -192.49)"/></g><g transform="translate(139.247 33.29)"><path class="h" d="M490.817,196.766a16.72,16.72,0,0,1,5.2-.918c.453.039.884.16,1.019.6s-.323,1.185-1.684,1.727a12.347,12.347,0,0,0-2.87,1.865S490.924,200.186,490.817,196.766Z" transform="translate(-490.817 -195.83)"/></g><g transform="translate(88.528 37.829)"><path class="h" d="M463.275,200.057s11.85,9.067,19.6,12.581c2.432,1.1,21.217-12.211,22.08-12.525.971-.354,2.924,4.693,2.924,4.693S485.1,224.7,483.457,224.341s-25.248-13.555-27.016-15.923-2.595-5.611-.335-7.825C459.277,197.488,463.275,200.057,463.275,200.057Z" transform="translate(-454.732 -199.059)"/></g><g transform="translate(98.171 40.773)"><path class="d" d="M466.958,216.957l4.026-11.062-5.765-4.742-3.626,12.878Z" transform="translate(-461.593 -201.154)"/></g><g transform="translate(20.146 114.684)"><path class="h" d="M411.953,255.25l-2.527-1.511-3.345,6.578,2.421,1.5Z" transform="translate(-406.081 -253.738)"/></g><g transform="translate(137.223 169.514)"><path class="h" d="M489.377,296.6l1.395,2.46,5.913-3.908-1.311-2.4Z" transform="translate(-489.377 -292.748)"/></g><g transform="translate(20.978 88.124)"><path class="f" d="M481.52,254.857c-1.033.964-2.745,2.8-4.648,4.925-.226.256-.458.513-.692.774-.559.631-1.136,1.279-1.709,1.93-.267.3-.536.609-.8.915-3.629,4.149-6.994,8.125-6.994,8.125S451.007,286.8,445.965,285.4c-10.941-3.027-39.292-15.713-39.292-15.713l5.472-9.524s10.591,4.7,17.6,6.827c7.979,2.412,5.556,2.049,12.99,3.933,4.561,1.157,11.757-17.287,11.822-17.416,2.893-7.113,7.033-16.217,10.12-18.543C467.269,233.012,481.52,254.857,481.52,254.857Z" transform="translate(-406.673 -234.842)"/></g><g transform="translate(75.126 94.116)"><path class="f" d="M497.628,274.525c-.557-3.7-6.634-13.316-10.93-19.033h0c-6.772-9.15-11.289-16.387-11.289-16.387s-30.819,2.981-30.2,6.012c1.171,5.75,14.6,12.9,17.27,15.032l6.509,4.09s5.787,3.948,9.857,7.44c5.449,4.678,4.468,6.348,7.9,13.358,3.071,6.281,18.2,35.614,18.2,35.614l9.164-5.385S498.491,280.274,497.628,274.525Z" transform="translate(-445.198 -239.105)"/></g><g transform="translate(70.612 29.049)"><path class="d" d="M473.708,232.882c.225,2.931,3,25,3,25l-34.726,6.564s5.379-11.85,4.45-21.8a61.277,61.277,0,0,1-.193-8.04c.093-2.5.309-4.866.543-7.062.37-3.475.78-6.529.825-9.06.337-19.638,15.745-25.674,15.745-25.674l7.309,3.763s4.1,8.813,4.689,14.032S473.484,229.955,473.708,232.882Z" transform="translate(-441.986 -192.812)"/></g><g transform="translate(91.433 3.931)"><path class="h" d="M475.449,179.787s3.118,4.537,1.912,5.425c-1,.734,1.823,5.21,2.207,5.951s-1.785,1.542-2.2,2.09-1.165,6.815-2.983,7.2-10.4-1.6-12.907-3.705-5.493-12.483-4.47-17.108S469.959,171.865,475.449,179.787Z" transform="translate(-456.799 -174.942)"/></g><g transform="translate(91.981 11.301)"><path class="h" d="M468.563,197.6s-.167.514-.412,1.31c-.1.333-.221.718-.344,1.133-.093.318-.193.654-.291,1a30.361,30.361,0,0,0-1.3,6.094c-.008,2.382-9.029-9.209-9.029-9.209s3.871-5.985,4.723-15.905C462.648,173.451,468.563,197.6,468.563,197.6Z" transform="translate(-457.189 -180.185)"/></g><g transform="translate(89.544 1.862)"><path class="n" d="M476.627,181.372s.111-4.792-2.5-6.464c-6.54-4.183-13.625,2.052-14.6,2.418S453.3,181,456.454,188.332c2.5,5.8,3.975,6.754,3.975,6.754s1.438-4.061,2.4-4.928a17.37,17.37,0,0,1,4.108-2.444s-.527-2.81,1.051-3.5C470.505,183.121,473.832,180.664,476.627,181.372Z" transform="translate(-455.456 -173.47)"/></g><g transform="translate(94.518 13.586)"><path class="h" d="M463.04,183.808c-.3-.593-1.345-3.172-3.458-1.365s2.129,6.422,2.534,6.444S465.573,188.805,463.04,183.808Z" transform="translate(-458.995 -181.811)"/></g><g transform="translate(31.784 78.673)"><path class="t" d="M414.361,237.863a4.719,4.719,0,0,1,.336-1.477s.526-.76.867-1.323a4.268,4.268,0,0,0,.245-.447,8.674,8.674,0,0,1,1.28-2.458c.779-.953,3.877-4.04,3.877-4.04l3.1,2.173,3.108,1.063s-1,7.416-1.628,8.388a2.746,2.746,0,0,1-.193.267,10.887,10.887,0,0,1-1.753,1.459c-.134.135-1.567,1.383-2.125,1.289a1.857,1.857,0,0,1-1.487-1.022,4.439,4.439,0,0,1-2.163-1.127,2.755,2.755,0,0,1-1.928-1.484S414.5,238.713,414.361,237.863Z" transform="translate(-414.361 -228.118)"/></g><g transform="translate(96.49 26.022)"><path class="p" d="M467.262,193.356s-.167.514-.412,1.31c-.1.333-.221.718-.344,1.133-4.766-2.805-6.071-5.07-6.109-5.14A45.781,45.781,0,0,0,467.262,193.356Z" transform="translate(-460.397 -190.659)"/></g><g transform="translate(0 108.005)"><path class="s" d="M415.239,255.665s-1.734,3.543-2.433,5.023.07,2.673-1.025,2.4-5.352-.308-6.858.552-10.834,6.966-12.661,5.25,1.413-5.8,6.564-10.917,4.031-6.631,8.459-8.938C408.664,248.319,415.239,255.665,415.239,255.665Z" transform="translate(-391.748 -248.987)"/></g><g transform="translate(138.391 170.72)"><path class="s" d="M490.208,298.31s3.268-2.1,4.606-2.983,1.3-2.274,2.082-1.49,4.328,2.983,6.028,3.029,12.622-.326,13.283,2.044-4.137,4.138-11.058,5.809-6.755,3.5-11.635,3.184C491.992,307.8,490.208,298.31,490.208,298.31Z" transform="translate(-490.208 -293.606)"/></g><g transform="translate(103.752)"><path class="n" d="M472.527,181.909s2.612-3.442,0-9.764c0,0-.945,2.744-6.963,1.872Z" transform="translate(-465.564 -172.145)"/></g><g transform="translate(79.643 45.641)"><path class="v" d="M460.291,204.617s-5.345,7.126-11.344,9.59l-.535-2.432Z" transform="translate(-448.411 -204.617)"/></g><g transform="translate(38.02 34.494)"><path class="h" d="M471.967,207.578s-18.9,9.368-26.173,15.172c-2.283,1.82-19.516,20.671-20.42,21.352s-6.577-2.864-6.577-2.864,18.331-24.655,19.5-26.076,25.078-17.357,30.46-18.271c3.184-.54,6.249-.169,7.281,3.132C477.483,204.651,471.967,207.578,471.967,207.578Z" transform="translate(-418.798 -196.686)"/></g><g transform="translate(75.898 32.175)"><path class="d" d="M465.347,197.993s-3.518-9.109-19.6,4.65l3.744,13.018S469.991,207.105,465.347,197.993Z" transform="translate(-445.747 -195.036)"/></g><g transform="translate(78.513 105.163)"><path class="w" d="M459.58,255.64c-.559.631-1.136,1.279-1.709,1.93-.267.3-.536.609-.8.915a108.991,108.991,0,0,1-9.464-11.52C449.616,249.2,459.58,255.64,459.58,255.64Z" transform="translate(-447.607 -246.965)"/></g></g><g transform="translate(205.832 360.207)"><g transform="translate(47.316 34.576)"><path class="x" d="M208.418,296.057l-20.4,20.6s-3.057,2.241-.363,8.378c2.99,6.811,13.136,16.965,13.136,16.965s3.735-.932,4.052-2.676-9.088-16.556-8.685-17.987,11.919-13.308,11.919-13.308S211.26,297.465,208.418,296.057Z" transform="translate(-186.541 -296.057)"/></g><g transform="translate(73.059 17.132)"><path class="h" d="M214.383,293.069s-1,5.632-.6,7.745-8.927-5.74-8.927-5.74,1.483-7,.9-10.73S214.383,293.069,214.383,293.069Z" transform="translate(-204.856 -283.646)"/></g><g transform="translate(84.4 125.756)"><path class="l" d="M227.145,360.928s3.415,5.046,3.659,9.881,11.767,41.247,11.767,41.247l-8.7,3.438s-9.049-22.822-11.076-28.635c-1.626-4.662-1.674-7.96-4.935-13.743a31.836,31.836,0,0,0-4.939-6.041Z" transform="translate(-212.925 -360.928)"/></g><g transform="translate(7.176 120.641)"><path class="l" d="M207.824,365.613a55.565,55.565,0,0,1-6.882,6.456c-3.653,2.829-35.991,24.766-36.454,25.081l-6.5-7.05s21.113-11.972,23.93-17.446,9.608-8.481,11.864-10.955a9.581,9.581,0,0,0,2.555-4.409Z" transform="translate(-157.983 -357.289)"/></g><g transform="translate(69.984 94.796)"><path class="l" d="M217.326,343.036s11.7,19.408,14.522,27.668l-12.779,7.368s-11.426-11.77-15.3-16.881S206.643,328.633,217.326,343.036Z" transform="translate(-202.669 -338.901)"/></g><g transform="translate(44.574 92.637)"><path class="l" d="M220.841,342.557s-15,25.961-25.469,32.912c0,0-6.852-3.822-10.782-7.833,0,0,7.806-23.211,9.213-28.552S220.841,342.557,220.841,342.557Z" transform="translate(-184.59 -337.365)"/></g><g transform="translate(53.121 28.52)"><path class="d" d="M210.558,291.748s8.726,4.713,9.243,4.925,6.789,11.873,5.589,21.36-4.3,15-5.548,25.713c-.725,6.242,1.4,13.483,2.266,15.687.394,1,.9,2.533-.164,2.4l-31.272-4.343s7.381-23.051,5.885-35.028C195.329,312.642,203.2,296.906,210.558,291.748Z" transform="translate(-190.671 -291.748)"/></g><g transform="translate(108.214 178.979)"><path class="d" d="M236.76,398.8a23.71,23.71,0,0,0,4.127,1.249c2.789.6,8.918-2.311,11.136-.819s2.187,4.291-3.867,6.11-15.661,5.444-16.571,4.758-1.937-6.281-1.675-8.6S236.76,398.8,236.76,398.8Z" transform="translate(-229.868 -398.795)"/></g><g transform="translate(108.061 176.884)"><path class="y" d="M235.743,397.3l1.06,2.1-6.851,2.7-.194-2.165Z" transform="translate(-229.759 -397.304)"/></g><g transform="translate(0 156.49)"><path class="d" d="M165.277,388.339a23.71,23.71,0,0,0,.24,4.308c.391,2.824,5.223,7.586,4.582,10.182s-3.283,3.524-7.064-1.54-10.478-12.85-10.145-13.94,5.238-3.971,7.5-4.519S165.277,388.339,165.277,388.339Z" transform="translate(-152.877 -382.794)"/></g><g transform="translate(7.514 155.601)"><path class="z" d="M164.715,386.883l-1.606,1.713-4.886-5.51,1.968-.924Z" transform="translate(-158.223 -382.162)"/></g><g transform="translate(105.783 63.391)"><path class="h" d="M229.1,319.889a7.779,7.779,0,0,0,3-2.165c.952-1.346,3.861-1.451,5.085-.707s2.974.232,3.321,1.227-1.38,1.924-1.346,2.79.483,4.925-2.817,5.364-5.826-1.272-7.521-1.036S229.1,319.889,229.1,319.889Z" transform="translate(-228.138 -316.558)"/></g><g transform="translate(70.654 5.3)"><path class="h" d="M221.361,277.568s1.664,3.881,1.65,5.144-1.342,1.3-.675,2.6,2.225,4.124,1.529,4.939-2.041.388-2.412,2.117-3.036,5.424-5.112,5.459-8.924-2.648-9.367-4.326-2.967-11.021-3.795-12.812,13.485-6.692,16.185-5.179A4.822,4.822,0,0,1,221.361,277.568Z" transform="translate(-203.146 -275.228)"/></g><g transform="translate(67.782 38.822)"><path class="x" d="M201.638,308.564s-2.416-9.192,3.016-9.476c6.29-.329,5.8,7.381,5.8,7.381Z" transform="translate(-201.102 -299.078)"/></g><path class="h" d="M221.816,279.164s-1.522-8.6-13.268-6.016-2.489,17.2-2.489,17.2Z" transform="translate(-132.716 -270.968)"/><g transform="translate(73.912 11.132)"><path class="h" d="M210.084,281.007s-1.342-3.018-3.93-.842c-1.883,1.581.476,6.671,2.4,6.523S211.071,283.655,210.084,281.007Z" transform="translate(-205.463 -279.377)"/></g><path class="n" d="M221.578,278.448a14.129,14.129,0,0,1-8.366,2.763c-5.021,0-7.063-.065-9.258,5.035,0,0-6.817-11.289,6.727-13.843C210.681,272.4,221.223,267.928,221.578,278.448Z" transform="translate(-132.859 -271.457)"/><g transform="translate(68.318 46.213)"><path class="x" d="M210.3,304.336l3.688,21.6s1.122,1.616,7.209,1.018,19.042-2.339,19.042-2.339a47.376,47.376,0,0,1-.072,5.685c-.128.748-26.344,5.816-31.144,3.125s-7.542-26.995-7.542-26.995Z" transform="translate(-201.483 -304.336)"/></g></g><g transform="translate(407.453 336.768)"><g transform="translate(2.764 3.241)"><path class="n" d="M329.3,258.877s-6.931-4.9-11.645,1.519,3.407,18.687-.659,22.33-20.511,1.6-18.548,12.1c0,0,2.669-7.146,10.221-5.764s17.076-1.289,15.485-11.4,3.576-7.479,4.059-10.459S329.3,258.877,329.3,258.877Z" transform="translate(-298.291 -257.088)"/></g><g transform="translate(30.393 5.041)"><path class="aa" d="M320.654,258.368s-2.468,2.305-1.134,8.55C319.519,266.918,315.318,261.189,320.654,258.368Z" transform="translate(-317.948 -258.368)"/></g><path class="ab" d="M356.293,307.432c.568-.048,3.231-.388,4.106-.469a6.613,6.613,0,0,0,2.24-.593,33.106,33.106,0,0,1,3.6-.513c1.583-.257,2.3-.755,2.3-1.034s-2.63-.337-2.63-.337-2.252.187-2.24-.107,2.082-.807,2.357-.867,3.736-1.226,4.359-2.083a1.021,1.021,0,0,0-.013-1.421s.68-.614.632-1.154-.731-.7-.731-.7a.805.805,0,0,0-.4-.907c-.637-.155-3.718.88-4.474,1.2a9.346,9.346,0,0,1-2.52.814c-1.091.167-.4-.93-.4-.93,1.5-1.763,2.15-2.239,2.027-3.9-.053-.734-1.547,1.182-1.848,1.522s-2.335,1.519-2.7,2.3-2.936,2.368-3.649,3.172a2.206,2.206,0,0,1-1.21.557Z" transform="translate(-272.487 -238.772)"/><g transform="translate(9.079 158.306)"><path class="ab" d="M308.486,371.766l-1.256,1.277-4.447-4.346,1.235-1.286Z" transform="translate(-302.783 -367.411)"/></g><g transform="translate(0 159.421)"><path class="d" d="M305.367,368.2s3.042,2.9,3.926,3.555,2.322.319,2.3,1.365-1.611,6.134-.751,8.173c.878,2.083,4.131,7.653,1.594,10.055s-14.129-14.694-15.908-15.9S305.367,368.2,305.367,368.2Z" transform="translate(-296.324 -368.204)"/></g><g transform="translate(92.451 159.781)"><path class="ab" d="M368.021,368.46l.557,1.7-5.8,1.89-.678-1.625Z" transform="translate(-362.1 -368.46)"/></g><g transform="translate(7.549 122.207)"><path class="s" d="M347.572,342.691s-6.575,13.19-8.952,15.4-29.074,25.053-29.074,25.053l-7.851-6.272a167.475,167.475,0,0,0,13.971-16.41c2.2-3.061,5.441-5.944,7.254-10.179a37.244,37.244,0,0,0,2.777-8.352C325.887,341.19,347.572,342.691,347.572,342.691Z" transform="translate(-301.695 -341.727)"/></g><g transform="translate(31.552 89.427)"><path class="s" d="M322.746,318.406s-1.174,15.454-1.643,20.667c-.618,6.838-1.421,8.5-2.33,12.32l20.061,3.715s7.237-11.218,6.474-14.176S322.746,318.406,322.746,318.406Z" transform="translate(-318.772 -318.406)"/></g><g transform="translate(21.734 42.247)"><path class="s" d="M337.475,292.506s-14.84,16.563-13.839,18.428c1.4,2.609,14.486,11.793,14.486,11.793l-3.9,4.166s-25.456-10.823-22.13-18.321,15.538-23.733,15.538-23.733Z" transform="translate(-311.787 -284.839)"/></g><path class="s" d="M381.5,363.092c-1.268-6.792-2.274-12.476-4.744-16.9s-16.8-19.2-16.8-19.2a85.1,85.1,0,0,0-7.61-7.854c-1.335-1.082-1.227-3.711-1.227-3.711s-29.583-.117-29.64,3.888,1.023,10.661,4.08,14.711c4.6,6.089,22.042,11.239,22.042,11.239s13.573,7.154,16.376,9.7,3.961,4.553,6.2,10.045,6.5,27.91,6.5,27.91l11.905-4.477S383.251,372.484,381.5,363.092Z" transform="translate(-286.123 -230.187)"/><g transform="translate(38.258 22.477)"><path class="ab" d="M323.543,270.773s1.979,6.838.7,9.378,11.166,3.441,11.166,3.441-2.53-5.722-1.365-8.556C335,272.694,323.543,270.773,323.543,270.773Z" transform="translate(-323.543 -270.773)"/></g><g transform="translate(31.795 2.19)"><path class="ab" d="M336.728,257.771s2.614,2.361,3.136,9.185c0,0,2.5,4.276,3.525,4.977s-1.815,1.792-1.954,2.524.066,3.936-1.5,6.307-13.118-.568-14.42-3.573-12.837-15.779-1.9-19.26S336.728,257.771,336.728,257.771Z" transform="translate(-318.945 -256.34)"/></g><g transform="translate(33.7 31.698)"><path class="f" d="M325.049,277.334s-1.147,4.228-2.692,8.655-2.933,9.9-1.373,18.919,3.869,20.2.4,29.824c0,0,20,1.448,30.987-1.234,0,0,1.533-10.906.091-15.616-4.4-14.38.956-12.443-2.439-18.979s-10.869-15.28-12.217-17.64Z" transform="translate(-320.3 -277.334)"/></g><g transform="translate(38.469 43.816)"><path class="s" d="M367.81,305.208l.566,2.595.149.676.862,3.954s-25.145,9.184-30.436,2.915-15.259-23.883-15.259-23.883l5.362-2.638.621-.306,5.217-2.565s9.322,20.968,11.437,20.884C349.287,306.721,367.81,305.208,367.81,305.208Z" transform="translate(-323.693 -285.955)"/></g><g transform="translate(37.989 28.511)"><path class="ac" d="M336.566,282.184s-.531-3-.208-3.9l-13.006-3.219.408,3.379S332.026,281.794,336.566,282.184Z" transform="translate(-323.352 -275.066)"/></g><g transform="translate(37.611 39.794)"><path class="ac" d="M337.067,291.352l-4.919,2.486-.62.313-5.2,2.63c-6.446-8.037-1.511-12.051-.2-12.917.121-.082.211-.135.257-.162l.018-.008.02-.01c.108-.046.218-.089.326-.124C334.4,280.775,337.067,291.352,337.067,291.352Z" transform="translate(-323.083 -283.093)"/></g><g transform="translate(92.83 160.046)"><path class="d" d="M362.369,371.982s3.976-1.349,4.971-1.824,1.362-1.91,2.276-1.4,4.685,4.276,6.891,4.46c2.252.19,8.695-.1,9.643,3.259s-19.575,5.687-21.467,6.7S362.369,371.982,362.369,371.982Z" transform="translate(-362.369 -368.648)"/></g><g transform="translate(30.838)"><path class="n" d="M338.545,260.789s-.257,3.126-10.553,7.953c0,0-2.131,5.17-3.955,6.248,0,0-9.476-8.318-4.145-15.122S335.555,252.81,338.545,260.789Z" transform="translate(-318.264 -254.782)"/></g><g transform="translate(37.605 13.451)"><path class="ab" d="M326.039,264.861c-.957-1.213-3.465-.124-2.87,1.851s2.984,3.681,3.535,2.6A3.96,3.96,0,0,0,326.039,264.861Z" transform="translate(-323.079 -264.352)"/></g></g></g></svg>