<svg xmlns="http://www.w3.org/2000/svg" xmlns:xlink="http://www.w3.org/1999/xlink" width="604.508" height="597.48" viewBox="0 0 604.508 597.48"><defs><style>.a{fill:none;}.b{fill:#63acc2;}.c{fill:url(#a);}.d{clip-path:url(#f);}.e{fill:#fff;}.f{fill:#303c60;}.g{fill:#f09959;}.h,.j{fill:#6791c9;}.i{fill:#75a1de;}.j{opacity:0.5;}.k{fill:#e38540;}.l{fill:#f5ce5c;}.m{fill:#4381db;}.n{fill:#2e5b9a;}.o{fill:#9cbeed;}.p{clip-path:url(#g);}.q{fill:#255096;}.r{fill:#afd7f2;}.s{fill:#f9b384;}.t{fill:#5985c4;}.u{fill:#3e6bab;}.v{fill:#fea66a;}.w{fill:#90bbe4;}.x{fill:#3a384d;}.y{clip-path:url(#h);}.z{fill:#2e2d3d;}.aa{fill:#f7fbfe;}.ab{fill:#bdccd4;}.ac{clip-path:url(#j);}.ad{fill:#7a4e34;}.ae{fill:#484a9f;}</style><linearGradient id="a" x1="0.5" x2="0.5" y2="1" gradientUnits="objectBoundingBox"><stop offset="0" stop-color="#4669b2"/><stop offset="1" stop-color="#afd7f2"/></linearGradient><clipPath id="f"><circle class="a" cx="105.545" cy="105.545" r="105.545" transform="translate(0 149.264) rotate(-45)"/></clipPath><clipPath id="g"><circle class="a" cx="103.87" cy="103.87" r="103.87" transform="translate(0 0)"/></clipPath><clipPath id="h"><circle class="a" cx="50.437" cy="50.437" r="50.437" transform="translate(0 0)"/></clipPath><clipPath id="j"><circle class="a" cx="126.044" cy="126.044" r="126.044" transform="translate(0 178.255) rotate(-45)"/></clipPath></defs><g transform="translate(-240 -2009.52)"><g transform="translate(240 2009.52)"><path class="b" d="M336.418,874.931a.831.831,0,0,1-.791-.593l-2.334-7.912a.821.821,0,0,1,.435-.989l7.43-3.564a.825.825,0,1,1,.715,1.487l-6.8,3.257,2.136,7.233a.831.831,0,0,1-.791,1.058Z" transform="translate(-282.329 -573.984)"/><path class="c" d="M402.562,1106.131a.824.824,0,0,1-.791-.59l-4.375-14.825a.825.825,0,0,1,1.582-.465l4.374,14.808a.828.828,0,0,1-.557,1.025A.851.851,0,0,1,402.562,1106.131Zm-8.749-29.619a.824.824,0,0,1-.791-.59l-4.375-14.811a.825.825,0,0,1,1.582-.469l4.391,14.811a.827.827,0,0,1-.557,1.025A.847.847,0,0,1,393.813,1076.512Zm-8.752-29.62a.827.827,0,0,1-.791-.593l-4.374-14.808a.825.825,0,1,1,1.582-.468l4.375,14.811a.824.824,0,0,1-.557,1.022A.84.84,0,0,1,385.061,1046.893Zm-8.749-29.619a.827.827,0,0,1-.791-.593l-4.375-14.808a.825.825,0,1,1,1.582-.468l4.378,14.811a.824.824,0,0,1-.557,1.022.836.836,0,0,1-.234.036Zm-8.749-29.623a.824.824,0,0,1-.791-.59L362.4,972.25a.825.825,0,0,1,1.582-.465l4.375,14.808a.828.828,0,0,1-.557,1.025.838.838,0,0,1-.231.033Zm-8.746-29.619a.827.827,0,0,1-.791-.59l-4.375-14.811a.825.825,0,1,1,1.582-.465l4.375,14.808a.822.822,0,0,1-.791,1.058Z" transform="translate(-295.979 -627.465)"/><path class="b" d="M516,1490.156a.8.8,0,0,1-.369-.086.825.825,0,0,1-.422-.5l-2.334-7.912a.824.824,0,1,1,1.579-.468l2.087,7.058,6.9-2.555a.824.824,0,1,1,.57,1.546l-7.727,2.861A.861.861,0,0,1,516,1490.156Z" transform="translate(-402.704 -988.777)"/><path class="c" d="M590.427,1262.786a.824.824,0,0,1-.284-1.6l15.233-5.637a.824.824,0,1,1,.57,1.546l-15.22,5.637A.856.856,0,0,1,590.427,1262.786Zm30.467-11.271a.824.824,0,0,1-.284-1.6l15.233-5.634a.824.824,0,1,1,.57,1.546l-15.233,5.634A.8.8,0,0,1,620.894,1251.515Zm30.466-11.271a.827.827,0,0,1-.287-1.6l15.233-5.637a.825.825,0,0,1,.574,1.546l-15.233,5.637A.8.8,0,0,1,651.36,1240.244Zm30.467-11.274a.824.824,0,0,1-.287-1.6l15.233-5.637a.824.824,0,1,1,.574,1.546l-15.233,5.637a.86.86,0,0,1-.287.049Zm30.466-11.271a.824.824,0,0,1-.287-1.6l15.233-5.634a.824.824,0,1,1,.574,1.546l-15.233,5.647a.8.8,0,0,1-.287.04Zm30.466-11.271a.824.824,0,0,1-.287-1.6l15.233-5.637a.824.824,0,1,1,.57,1.546l-15.23,5.637A.8.8,0,0,1,742.76,1206.429Zm30.467-11.274a.824.824,0,0,1-.287-1.6l15.233-5.637a.824.824,0,1,1,.57,1.546l-15.233,5.637A.866.866,0,0,1,773.227,1195.155Zm30.466-11.271a.824.824,0,0,1-.287-1.6l15.233-5.634a.824.824,0,1,1,.57,1.546l-15.233,5.634a.78.78,0,0,1-.293.053Zm30.463-11.271a.824.824,0,0,1-.284-1.6l15.233-5.637a.824.824,0,0,1,.57,1.546l-15.233,5.637a.857.857,0,0,1-.287.052Zm30.467-11.274a.824.824,0,0,1-.284-1.6l15.233-5.637a.824.824,0,1,1,.57,1.546l-15.233,5.637a.881.881,0,0,1-.287.049Z" transform="translate(-454.175 -769.902)"/><path class="b" d="M1529.421,1134.1a.814.814,0,0,1-.422-.115l-6.748-4.005-7.361,2.723a.825.825,0,1,1-.574-1.546l7.73-2.858a.838.838,0,0,1,.709.063l7.084,4.206a.824.824,0,0,1-.419,1.533Z" transform="translate(-1073.688 -752.6)"/><path class="c" d="M401.576,583.113c-.171,0-.32-.349-.358-.837a2.134,2.134,0,0,1,.2-1.206l6.686-9.354c.183-.256.4-.03.491.505a2.319,2.319,0,0,1-.173,1.434l-6.686,9.354A.213.213,0,0,1,401.576,583.113Zm13.373-18.7c-.171,0-.32-.349-.358-.837a2.133,2.133,0,0,1,.2-1.206l6.688-9.354c.183-.257.4-.03.491.505a2.318,2.318,0,0,1-.173,1.434l-6.688,9.349A.206.206,0,0,1,414.949,564.41Zm13.374-18.7c-.173,0-.323-.346-.361-.837a2.116,2.116,0,0,1,.2-1.21l6.686-9.349c.184-.256.4-.03.491.505a2.319,2.319,0,0,1-.173,1.434l-6.686,9.349a.209.209,0,0,1-.159.108ZM441.7,527c-.173,0-.324-.343-.362-.835a2.118,2.118,0,0,1,.2-1.212l6.688-9.349c.18-.216.387.016.472.529a2.41,2.41,0,0,1-.154,1.406l-6.688,9.354A.2.2,0,0,1,441.7,527ZM455.071,508.3c-.171,0-.32-.349-.358-.837a2.133,2.133,0,0,1,.2-1.206L461.6,496.9c.183-.256.4-.03.491.505a2.319,2.319,0,0,1-.173,1.434l-6.686,9.354A.213.213,0,0,1,455.071,508.3Zm13.374-18.7c-.171,0-.32-.349-.358-.837a2.133,2.133,0,0,1,.2-1.206l6.686-9.354c.183-.257.4-.03.491.505a2.318,2.318,0,0,1-.173,1.434L468.6,489.49A.214.214,0,0,1,468.445,489.593Zm13.373-18.7c-.173,0-.323-.346-.361-.837a2.116,2.116,0,0,1,.2-1.21l4.42-6.188.056-.06,2.418-2.051c.2-.166.4.161.457.731a1.9,1.9,0,0,1-.25,1.333l-2.378,2.025-4.4,6.15A.2.2,0,0,1,481.818,470.89Zm13.955-14.308c-.183,0-.339-.393-.365-.923a1.741,1.741,0,0,1,.262-1.184l7.117-6.068c.2-.167.4.159.458.729a1.9,1.9,0,0,1-.25,1.335l-7.118,6.068A.154.154,0,0,1,495.773,456.582ZM795.227,449.7H795.2l-7.392-1.72c-.2-.047-.355-.567-.339-1.161s.194-1.037.4-.989l7.391,1.72c.2.023.362.522.354,1.116S795.431,449.723,795.227,449.7Zm-14.789-3.4h-.029l-7.391-1.72c-.2-.046-.356-.565-.34-1.159s.194-1.038.4-.991l7.392,1.72c.2.024.362.524.354,1.118S780.642,446.327,780.439,446.3ZM510,444.458c-.183,0-.339-.393-.365-.923a1.742,1.742,0,0,1,.261-1.184l7.118-6.068c.2-.166.4.161.457.731a1.9,1.9,0,0,1-.251,1.333l-7.118,6.068a.168.168,0,0,1-.1.035Zm255.653-1.565h-.029l-7.392-1.72c-.2-.048-.355-.567-.339-1.161s.194-1.037.4-.989l7.391,1.72c.2.023.362.522.354,1.116S765.859,442.916,765.656,442.893Zm-14.784-3.406h-.029l-7.391-1.72c-.2-.046-.356-.565-.34-1.159s.194-1.038.4-.991l7.392,1.72c.2.024.362.524.354,1.118s-.18,1.056-.383,1.032Zm-14.783-3.419h-.029l-7.392-1.72c-.2-.046-.355-.565-.34-1.159s.194-1.038.4-.991l7.392,1.72c.2.023.362.522.354,1.116S736.292,436.091,736.089,436.068Zm-14.784-3.41h-.029l-7.392-1.72c-.2-.048-.355-.567-.339-1.161s.194-1.037.4-.989l7.392,1.72c.2.024.362.524.354,1.118S721.508,432.681,721.3,432.658Zm-197.066-.344c-.183,0-.339-.393-.365-.923a1.74,1.74,0,0,1,.262-1.184l7.118-6.064c.2-.166.4.161.457.731a1.9,1.9,0,0,1-.251,1.333l-7.117,6.064A.157.157,0,0,1,524.238,432.314Zm182.283-3.062h-.029l-7.392-1.72c-.2-.046-.356-.565-.34-1.159s.194-1.038.4-.991l7.392,1.72c.2.023.362.522.354,1.116S706.725,429.274,706.521,429.252Zm-14.774-3.69H691.7l-7.367-2.533c-.2-.07-.349-.608-.325-1.2s.208-1.018.412-.948l7.367,2.533c.2.034.359.544.347,1.137S691.951,425.6,691.747,425.562ZM677.019,420.5h-.044l-7.367-2.533c-.2-.069-.349-.606-.326-1.2s.208-1.019.411-.95l7.367,2.533c.2.035.359.544.347,1.138s-.186,1.047-.39,1.013Zm-138.545-.314c-.183,0-.339-.393-.365-.923a1.741,1.741,0,0,1,.262-1.184l7.117-6.068c.2-.166.4.161.457.731a1.9,1.9,0,0,1-.251,1.333l-7.117,6.068a.152.152,0,0,1-.1.039Zm123.817-4.752a.076.076,0,0,1-.043,0l-7.367-2.529c-.2-.07-.349-.608-.325-1.2s.208-1.018.412-.948l7.367,2.533c.2.034.359.544.347,1.137s-.186,1.047-.39,1.013Zm-14.727-5.066h-.044l-7.367-2.533c-.2-.069-.349-.606-.326-1.2s.208-1.019.411-.95l7.367,2.533c.2.034.359.544.347,1.137s-.186,1.047-.39,1.013Zm-94.855-2.314c-.183,0-.339-.393-.365-.923a1.741,1.741,0,0,1,.262-1.184l7.114-6.09c.2-.166.4.161.457.731a1.9,1.9,0,0,1-.25,1.333l-7.114,6.107a.154.154,0,0,1-.1.021Zm80.126-2.748h-.043l-7.367-2.533c-.2-.069-.349-.606-.325-1.2s.208-1.019.411-.95l7.367,2.533c.2.034.347,1.137.347,1.137S633.039,405.341,632.835,405.306ZM618.1,400.24h-.044l-7.357-2.533c-.2-.07-.349-.608-.325-1.2s.208-1.018.412-.948l7.367,2.533c.2.033.359.542.348,1.135s-.186,1.048-.389,1.015Zm-51.162-4.326c-.183,0-.339-.393-.365-.923a1.741,1.741,0,0,1,.261-1.184l7.118-6.064c.2-.166.4.161.457.731a1.9,1.9,0,0,1-.251,1.333l-7.118,6.064A.156.156,0,0,1,566.939,395.914Zm36.436-.744h-.044l-7.367-2.533c-.2-.07-.349-.608-.325-1.2s.208-1.018.412-.948l7.367,2.533c.2.034.359.544.347,1.137S603.579,395.2,603.375,395.17ZM588.641,390.1H588.6l-7.367-2.533c-.2-.069-.349-.606-.326-1.2s.208-1.019.411-.95l7.367,2.533c.2.035.359.544.347,1.138S588.845,390.138,588.641,390.1Z" transform="translate(-327.881 -300.801)"/><path class="b" d="M362.7,880.432a.758.758,0,0,1-.171-.02l-8.063-1.708a.824.824,0,0,1,.33-1.612l8.063,1.711a.829.829,0,0,1-.171,1.648Z" transform="translate(-296.137 -584.235)"/><path class="c" d="M769.747,966.829a.794.794,0,0,1-.175-.02l-16.262-3.452a.824.824,0,0,1,.33-1.612L769.9,965.2a.824.824,0,0,1-.168,1.632Zm-32.523-6.9a.786.786,0,0,1-.175-.02l-16.259-3.451a.824.824,0,1,1,.33-1.612l16.262,3.451a.828.828,0,0,1-.168,1.648ZM704.7,953a1,1,0,0,1-.171,0l-16.262-3.451a.824.824,0,0,1,.33-1.615l16.262,3.455a.824.824,0,0,1-.168,1.629Zm-32.53-6.886a.736.736,0,0,1-.171-.02l-16.262-3.452a.824.824,0,1,1,.33-1.612l16.258,3.451a.828.828,0,1,1-.168,1.648Zm-32.524-6.923a.745.745,0,0,1-.171,0l-16.262-3.451a.824.824,0,1,1,.33-1.612l16.262,3.451a.824.824,0,0,1-.171,1.629Zm-32.524-6.9a.756.756,0,0,1-.171-.02L590.69,928.82a.824.824,0,1,1,.33-1.612l16.265,3.484a.824.824,0,0,1-.171,1.632Zm-32.53-6.873a.765.765,0,0,1-.172-.02l-16.262-3.452a.824.824,0,1,1,.33-1.612l16.272,3.435a.829.829,0,1,1-.171,1.648ZM542.069,918.5a1,1,0,0,1-.171,0l-16.262-3.455a.824.824,0,1,1,.33-1.612l16.262,3.455a.824.824,0,0,1-.171,1.628Zm-32.524-6.9a.758.758,0,0,1-.171-.02l-16.262-3.451a.824.824,0,1,1,.33-1.612l16.262,3.452a.829.829,0,1,1-.171,1.648Zm-32.524-6.922a.76.76,0,0,1-.171,0l-16.265-3.448a.824.824,0,1,1,.33-1.612l16.262,3.452a.824.824,0,0,1-.171,1.628Zm-32.523-6.9a.765.765,0,0,1-.172-.02l-16.265-3.432a.824.824,0,1,1,.33-1.612l16.262,3.451a.824.824,0,0,1-.171,1.632Z" transform="translate(-345.408 -594.687)"/><path class="b" d="M1521.741,1113.3a.775.775,0,0,1-.172,0l-8.063-1.711a.824.824,0,0,1,.33-1.612l7.173,1.523.821-7.289a.829.829,0,1,1,1.648.185l-.923,8.188a.821.821,0,0,1-.818.732Z" transform="translate(-1073.096 -735.995)"/><path class="c" d="M1546.67,585.115h-.092c-.453-.027-.779-.246-.729-.49l1.918-9.174c.051-.245.461-.421.917-.394s.783.248.732.493l-1.919,9.174C1547.449,584.95,1547.091,585.119,1546.67,585.115Zm3.841-18.348h-.092c-.453-.027-.779-.246-.729-.49l1.919-9.174c.051-.245.461-.422.917-.394s.783.248.732.493l-1.919,9.174C1551.289,566.6,1550.932,566.771,1550.511,566.768Zm3.834-18.355h-.092c-.453-.027-.779-.246-.729-.49l1.919-9.174c.051-.245.461-.422.917-.394s.783.248.732.493l-1.919,9.174C1555.122,548.248,1554.765,548.416,1554.345,548.413Zm3.837-18.348h-.093c-.452-.027-.778-.246-.728-.49l1.918-9.174c.051-.245.461-.422.917-.394s.783.248.732.493l-1.918,9.174c-.046.227-.4.4-.827.4Zm3.837-18.348h-.092c-.452-.027-.779-.246-.729-.49l1.919-9.174c.051-.245.461-.422.916-.394s.783.248.732.494l-1.919,9.174c-.046.227-.4.4-.827.4Zm3.837-18.333h-.1c-.451-.028-.775-.247-.725-.49l1.919-9.174c.051-.245.461-.422.916-.394s.783.248.732.494l-1.938,9.163C1566.622,493.208,1566.275,493.38,1565.856,493.385Z" transform="translate(-1095.184 -320.279)"/><path class="b" d="M1616.51,416.593h-.1a.821.821,0,0,1-.725-.91l.923-8.192a.829.829,0,1,1,1.648.185l-.919,8.192A.828.828,0,0,1,1616.51,416.593Z" transform="translate(-1142.001 -268.951)"/><path class="b" d="M547.21,1527.309h-.04l-8.241-.382a.825.825,0,0,1,.076-1.648l8.241.382a.824.824,0,1,1-.036,1.648Z" transform="translate(-419.674 -1018.75)"/><path class="b" d="M1598.449,1121.253a.824.824,0,0,1-.428-1.53l7.051-4.266a.824.824,0,1,1,.854,1.411l-7.051,4.266A.8.8,0,0,1,1598.449,1121.253Z" transform="translate(-1129.893 -743.948)"/><g class="d" transform="translate(305.98 217.539)"><circle class="e" cx="105.545" cy="105.545" r="105.545" transform="translate(0 149.264) rotate(-45)"/><path class="f" d="M1456.625,828.07c16.034-14.277,27.806-5.759,36.592,3.758,6.989,7.582,7.964,9.27,13.74,17.142a6.891,6.891,0,0,1,1.543,3.913c.161,8.69,4.615,45.436-.33,58.118-5.759,14.778-76.809,21.543-76.809,21.543Z" transform="translate(-1324.42 -763.825)"/><path class="f" d="M1644.481,980.582a.8.8,0,0,1-.039-1.605,6.741,6.741,0,0,0,5.2-2.871c7.951-10.3,3.471-44.741-.429-63.468a.8.8,0,1,1,1.573-.33,251.011,251.011,0,0,1,4.6,33.757c.913,15.56-.59,25.993-4.467,31.02a8.381,8.381,0,0,1-6.385,3.494Z" transform="translate(-1466.764 -824.931)"/><path class="f" d="M1362.262,830.61c-30.813,17.033-12.022,74.65-51.1,95.194-10.829,5.69-44.091,34.568-22.3,72.646,14.257,24.909,56.868,19.542,70.9-2.505S1362.262,830.61,1362.262,830.61Z" transform="translate(-1224.042 -770.621)"/><path class="f" d="M1275.873,1005.3h-.109a.8.8,0,0,1-.689-.9,42.17,42.17,0,0,1,3.778-11.5,50.436,50.436,0,0,1,18.46-20.8c18.068-11.495,30.061-22.334,44.246-75.767a.8.8,0,1,1,1.552.412c-6.86,25.841-13.661,43.31-21.407,54.98-7.2,10.842-14.6,16.051-23.527,21.731a48.114,48.114,0,0,0-21.513,31.162A.8.8,0,0,1,1275.873,1005.3Z" transform="translate(-1219.651 -814.246)"/><path class="f" d="M1277.916,981.831a.783.783,0,0,1-.429-.125.8.8,0,0,1-.25-1.108,55.874,55.874,0,0,1,16.937-17.264c25.383-16.41,29.573-25.848,50.539-79.9a.8.8,0,0,1,1.5.58c-10.489,27.032-16.756,42.885-23.613,54.119-7.371,12.072-15.685,18.876-27.555,26.554a54.26,54.26,0,0,0-16.45,16.773.8.8,0,0,1-.679.376Z" transform="translate(-1221.021 -805.695)"/><path class="g" d="M1504.563,939.68a89.839,89.839,0,0,0-8.977,42.028s1.226,7.75,6.122,9.382,11.831-3.264,11.426-9.791,1.648-22.443,4.078-28.156S1504.563,939.68,1504.563,939.68Z" transform="translate(-1367.413 -843.735)"/><path class="h" d="M1353,1371.491c.659,6.013-.834,5.512,4.51,6.514s14.864-2.673,14.864-2.673l-10.691-19.872Z" transform="translate(-1271.891 -1122.452)"/><path class="g" d="M1398.819,1031.27c-3,9.771-25.548,2.255-33.44,4.51s-14.653,35.319-15.781,65,.376,53.354,3.382,57.112,52.6,5.274,57.112,3.758-37.58-20.29-37.58-20.29-2.637-34.567.752-52.23,33.816-40.956,33.816-40.956Z" transform="translate(-1269.361 -905.133)"/><path class="g" d="M1527,1040.39c7.892,12.022,28.558,10.519,35.695,20.29s22.169,63.5,22.169,63.5l15.783-54.482s12.8-2.149,8.64,6.761c-7.391,15.853-10.147,67-18.164,74.264-8.9,8.08-17.785,1.5-22.793-12.642-4.842-13.681-16.908-43.211-25.551-54.482s-18.035-29.309-18.035-29.309Z" transform="translate(-1387.024 -911.246)"/><path class="i" d="M1371.107,1041.881c15.78,18.411,46.59,17.659,53.354,15.4l6.765-2.255s5.274-1.879,9.767,3.382,15.408,38.325,17.284,45.841,4.885,19.914,4.885,19.914-8.06,9.675-8.06,19.45,3.422,9.853,3.422,9.853-10.015-2.245-12.27-8.241-22.545-60.495-22.545-60.495l-55.985,1.127.752,61.622s-4.885-4.51-11.65,0-9.016,15.029-7.889,16.532-2.255,1.5-2.255.376-6.388-28.554-1.879-73.645,13.15-49.975,18.035-50.351A15.989,15.989,0,0,1,1371.107,1041.881Z" transform="translate(-1265.318 -911.218)"/><path class="h" d="M1686.1,1381.09a.58.58,0,0,0,.168.036Z" transform="translate(-1495.184 -1139.633)"/><path class="h" d="M1632.64,1191.746c-3.257.989-8.766,12.527-8.766,12.527s-12.527-27.305-16.285-65.133l-4.47,25.667c6.171,16.572,15.86,42.575,17.376,46.62,2.064,5.5,10.377,7.793,11.518,8.047-.31-.1-.989-.521-1.569-2.172-.33-.3-2.212-1.177-2.561-1.5-3.006-2.756-1.754-9.27.251-16.535S1635.9,1190.744,1632.64,1191.746Z" transform="translate(-1439.559 -977.443)"/><path class="h" d="M1400.432,1120.4l-6.211-28.4c-6.761,9.521-7.513,42.087-4.757,64.381,2.258,18.283,5.64,23.03,7.961,24.935a6.986,6.986,0,0,1,1.065.752l-.751-61.622Z" transform="translate(-1295.332 -945.843)"/><path class="i" d="M1371.23,1091.26c11.538,31.063,5.762,37.327,20.923,73.786,8.472,20.363,24.8,35.695,24.8,35.695a103.666,103.666,0,0,0,29.669,2.255c16.516-1.127,28.637-2.265,28.637-2.265s-17.366-10.509-18.131-17.65-4.012-35.458.247-55.5c3.326-15.652-10.391-31.317-10.391-31.317l-22.921-1.127Z" transform="translate(-1284.112 -945.347)"/><path class="j" d="M1432.285,1230.167c-2-7.253,8.518,2.255,25.8,4.008s36.592-.989,27.055,2-35.569-1.5-30.813,8.017c5.6,11.208,12.217,22.044,21.8,28.558,6.264,4.259,21.292,8.268,6.765,6.013s-30.064-19.291-36.826-30.328S1432.733,1231.789,1432.285,1230.167Z" transform="translate(-1324.877 -1036.658)"/><path class="k" d="M1525.443,981.474c.152-7.5,1.978-20.3,4.121-25.294,1.754-4.091-5.5-9.23-9.751-11.818l-3.6-.152q-.821,1.79-1.543,3.557c-3.8,24.942,7.582,35.247,12.991,37.32a16.513,16.513,0,0,0,7.207.791A43.663,43.663,0,0,1,1525.443,981.474Z" transform="translate(-1379.759 -846.772)"/><path class="l" d="M1494.649,1060.144a17.044,17.044,0,0,1-4.005-.485c-3.145-.768-10.641-3.679-12.385-14.139a.455.455,0,1,1,.9-.148c1.648,9.922,8.736,12.678,11.7,13.4,4.615,1.124,9.494.089,11.366-2.41,1.5-2,.6-6.263.59-6.313a.455.455,0,1,1,.887-.191c.043.191.989,4.717-.748,7.051C1501.407,1058.974,1498.22,1060.144,1494.649,1060.144Z" transform="translate(-1355.852 -914.317)"/><path class="g" d="M1561,911.919c-2.548,13.46-8.436,24.319-18.4,22.271s-20.438-16.262-17.676-29.669,13.064-22.637,23.026-20.59S1564.4,893.983,1561,911.919Z" transform="translate(-1386.841 -806.175)"/><path class="g" d="M1703.109,1171.05s-18.414,49.474-19.291,54.61.877,8.393,1.378,8.393,16.153-26.8,16.153-26.8Z" transform="translate(-1493.493 -998.834)"/><path class="g" d="M1743.414,1141.366c1.5-5.007-.834-11.356-.834-11.356l6.679.837Z" transform="translate(-1533.045 -971.323)"/><path class="m" d="M1726.036,1051.435h-18.642a1.691,1.691,0,0,1-1.618-2.176l11.765-39.453a1.7,1.7,0,0,1,1.622-1.207H1737.8a1.695,1.695,0,0,1,1.622,2.176l-11.769,39.453A1.691,1.691,0,0,1,1726.036,1051.435Z" transform="translate(-1508.326 -889.936)"/><path class="n" d="M1733.126,1051.435h-18.642a1.691,1.691,0,0,1-1.619-2.176l11.765-39.453a1.694,1.694,0,0,1,1.622-1.207h18.639a1.695,1.695,0,0,1,1.622,2.176l-11.769,39.453A1.687,1.687,0,0,1,1733.126,1051.435Z" transform="translate(-1513.079 -889.936)"/><path class="o" d="M1727.35,1025.771c-1.978,7.16-3.326,13.041-2.987,13.133s2.222-5.634,4.206-12.794,3.326-13.041,2.99-13.133S1729.338,1018.611,1727.35,1025.771Z" transform="translate(-1520.799 -892.87)"/><path class="g" d="M1758.483,1084.827c.55-6.507,6.188-12.606,8.33-14.551a3.068,3.068,0,0,0,1.012-2.307c-.03-3.244-.175-10.9-.847-11.792-.854-1.141-2.987-15.8-3.982-15.23s.283,13.377.283,13.377-2.42-1.137-3.7-1.708-6.547,5.274-6.547,5.274-2.469,6.237,4.286,3.564c8.017-3.171,2,5.68-3.339,11.357-4.4,4.681-.659,5.716-.659,5.716l3.557-.145Z" transform="translate(-1539.25 -911.609)"/><path class="l" d="M1750.473,1171.976a6.6,6.6,0,0,1-1.938-.3c-1.744-.544-4.787-2.308-5.6-7.912a.456.456,0,0,1,.9-.128c.659,4.707,2.937,6.461,4.717,7.1a4.551,4.551,0,0,0,3.089.145.455.455,0,0,1,.87-.086.621.621,0,0,1-.142.659A2.749,2.749,0,0,1,1750.473,1171.976Z" transform="translate(-1533.277 -993.599)"/><path class="l" d="M1748.152,1174.361a11.9,11.9,0,0,1-1.675-.122c-3.237-.468-5.41-2.113-5.957-4.513a.458.458,0,0,1,.89-.2c.5,2.189,2.456,3.148,4.012,3.573,2.308.63,4.579.29,4.866-.02a.445.445,0,0,1,.613-.161.465.465,0,0,1,.168.63C1750.753,1174.1,1749.524,1174.361,1748.152,1174.361Z" transform="translate(-1531.662 -997.596)"/><path class="e" d="M1590.047,956.145a4.045,4.045,0,0,1-.627-.046c-3.2-.491-5.136-4.615-4.4-9.365s3.811-8.1,7.005-7.618,5.136,4.615,4.407,9.365C1595.747,952.931,1593.013,956.145,1590.047,956.145Zm1.368-15.467c-2.12,0-4.286,2.759-4.813,6.3-.574,3.741.831,7.193,3.062,7.532s4.615-2.528,5.176-6.263-.828-7.19-3.059-7.532a2.254,2.254,0,0,0-.366-.02Z" transform="translate(-1427.32 -843.326)"/><path class="e" d="M1625.894,960.4a2.127,2.127,0,0,1-.33-.023c-2.133-.33-3.254-3.784-2.6-8.043s2.756-7.219,4.889-6.9,3.254,3.784,2.6,8.044a12.794,12.794,0,0,1-1.757,4.945A3.579,3.579,0,0,1,1625.894,960.4Zm1.648-13.773c-1.2,0-2.825,2.331-3.372,5.891-.564,3.7.382,6.475,1.585,6.659.584.089,1.286-.422,1.932-1.4a11.6,11.6,0,0,0,1.573-4.477c.564-3.692-.383-6.474-1.586-6.659a.838.838,0,0,0-.129-.01Z" transform="translate(-1452.737 -847.581)"/><path class="e" d="M1538.575,935.59a.825.825,0,0,1-.221-.03l-24.553-7.015a.8.8,0,0,1,.442-1.546l24.549,7.015a.8.8,0,0,1-.218,1.576Z" transform="translate(-1379.309 -835.219)"/><path class="f" d="M1561.772,878.07c-38,22.377-40.083,7.348-40.083,7.348l2.255-21.378,22.545,1.253Z" transform="translate(-1384.973 -793.031)"/><path class="g" d="M1512.547,931.964c.883,3.784-.33,7.3-2.7,7.856s-5.014-2.064-5.9-5.845.33-7.3,2.7-7.856S1511.663,928.166,1512.547,931.964Z" transform="translate(-1372.889 -834.595)"/><path class="l" d="M1516.623,955.957a1.5,1.5,0,1,1-1.5-1.5,1.5,1.5,0,0,1,1.5,1.5Z" transform="translate(-1379.569 -853.643)"/><path class="g" d="M1555.89,1385.791s10.269-4.51,13.275-2.505,11.693,11.208,11.693,11.208Z" transform="translate(-1407.899 -1140.761)"/><path class="n" d="M1582.85,1382.672a.553.553,0,0,1-.659.224l-21.134-15.734c-1.14-.847-1.681-2.143-1.134-2.828s1.932-.438,3.01.484l19.984,17.172C1583.081,1382.121,1583.045,1382.422,1582.85,1382.672Z" transform="translate(-1410.458 -1128.138)"/><path class="g" d="M1452.5,1386.11s17.033,6.765,19.038,6.765,13.186-7.516,16.951-6.514,22.13,10.269,21.629,11.02-5.762,2.506-21.292,2-40.828-2.762-40.828-2.762Z" transform="translate(-1335.575 -1142.998)"/></g><g class="p" transform="translate(9.422 388.42)"><circle class="e" cx="103.87" cy="103.87" r="103.87" transform="translate(0 0)"/><path class="q" d="M674.966,1421.879a6.809,6.809,0,0,0,7.325,1.071c4.071-1.958,18.929-12.461,18.461-15.022s-7.394-3.178-7.394-3.178S671.861,1421.757,674.966,1421.879Z" transform="translate(-520.609 -1326.375)"/><path class="r" d="M686.4,1424.654c-2.786-.445,6.382-7.737,9.378-10.753a46.434,46.434,0,0,1,4.945-4.421s5.123.623,5.123,1.618-14.706,12.728-14.706,12.728S687.661,1424.855,686.4,1424.654Z" transform="translate(-528.133 -1329.546)"/><path class="s" d="M630.892,1457.532s5.35-9.046,7.912-11.455,11.208-7.088,12.527-7.117c2.245-.05-7.7,6.665-7.7,6.665s1.358,8.742.152,11.907-13.868,7.384-13.868,7.384Z" transform="translate(-490.612 -1349.307)"/><path class="t" d="M602.71,1499.194s8.742-13.114,10.7-12.2,7.252,12.2,7.252,12.2-15.375,15.978-15.375,12.962S602.71,1499.194,602.71,1499.194Z" transform="translate(-472.378 -1381.478)"/><path class="s" d="M479.426,1311.05s-9.042,31.957-15.072,45.218-9.042,37.986-7.839,81.395-7.233,42.2,5.426,47.628,57.88-3.626,63.91-17.471-4.022-70.335-18.991-91.05c-14.765-20.455-21.4-27.734-21.4-32.56s5.835-25.321,5.835-25.321Z" transform="translate(-373.271 -1263.564)"/><path class="u" d="M525.844,1537.093c6.029-13.865-4.038-70.321-18.991-91.037-6.877-9.527-11.99-16.193-15.494-21.1a105.744,105.744,0,0,0-22.647-10.549c-1.516,4.285-3.02,8.182-4.368,11.152-6.029,13.265-9.042,37.986-7.839,81.394s-7.233,42.2,5.426,47.629S519.815,1550.962,525.844,1537.093Z" transform="translate(-373.264 -1332.85)"/><path class="u" d="M468.787,1396.352c.152-2.479,32.355,10.252,32.556,12.662s2.1,11.409,4.77,16.255-44.833,31.92-43.089,18.737S468.385,1402.988,468.787,1396.352Z" transform="translate(-378.709 -1320.532)"/><path class="v" d="M525.367,1344.75a5.076,5.076,0,0,1-.03-.54c0-4.823,5.835-25.321,5.835-25.321L519.3,1311.05s-2.1,7.42-4.945,16.591C518.046,1338.648,521.494,1342.4,525.367,1344.75Z" transform="translate(-413.153 -1263.564)"/><path class="s" d="M560.113,1314.727c-2.192,9.932-9.052,17-16.98,15.055-5.815-1.424-14.755-9.56-11.887-21.427,2.387-9.89,10.43-16.558,18.4-14.8S562.306,1304.795,560.113,1314.727Z" transform="translate(-424.102 -1251.648)"/><path class="s" d="M623.594,1479.085c8.241-14.218,9.151-27.5,14.986-31.647,8.205-5.835,14.943-18.879,11.973-19.393s-15,10.506-15,10.506,3.129-4.285,2.38-4.641-6.8,4.038-7.743,9.23-12.58,29.075-22.344,36.724S615.363,1493.289,623.594,1479.085Z" transform="translate(-473.873 -1341.979)"/><path class="u" d="M482.879,1473.26c-14.59,3.626-7.912,47.684,4.381,73.81s35.408,3.557,44.052-2.845a28.685,28.685,0,0,0,6.863-7.012c-2.772-15.589-7.529-32.306-13.4-44.085C511.008,1509.288,504.461,1467.907,482.879,1473.26Z" transform="translate(-386.485 -1371.978)"/><path class="w" d="M492.733,1464.568c-18.342,1.839-8.3,47.631,5.116,66.118s32.5.6,38.533-10.048,18.236-28.762,18.236-40.547c0-2.212-4.52-2.664-9.945-2.262-5.11.379-28.192,32.155-28.192,32.155S508.774,1462.959,492.733,1464.568Z" transform="translate(-391.958 -1366.447)"/><path class="x" d="M527.2,1253.584c19.146,1.319,16.7,30.987,16.7,30.987s-15.79.458-20.5-.91a34.465,34.465,0,0,1-9.5-5.053s-2.9,11.241-10.813,11.867l-7.912.626s-5.222-21.335-1.094-30.958C502.642,1240.191,519.734,1250.179,527.2,1253.584Z" transform="translate(-398.495 -1221.338)"/><path class="s" d="M533.4,1337.7c1.134,2.914,3.814,4.6,5.99,3.748s3.02-3.893,1.886-6.811-3.817-4.6-5.99-3.751S532.275,1334.779,533.4,1337.7Z" transform="translate(-425.583 -1276.714)"/><path class="x" d="M373.72,1340.455a.57.57,0,0,0-1.1-.224c-1.727,4.032-5.354,11.027-9.873,11.538-6.372.7-51.848,4.4-36.713,39.5,9.56,22.172,16.483,31.02,7.084,39.229-8.65,7.552-20.063.442-22.911-1.464a.57.57,0,0,0-.88.382c-.8,4.885-3.465,28.288,19.209,27.952,25.311-.376,37.393-23.254,27.081-44.243s10.12-26.372,10.954-38.154c.808-11.357.2-17.1.04-18.358a.57.57,0,0,1,.158-.471l6.784-6.953a.567.567,0,0,0,.165-.4Z" transform="translate(-275.358 -1282.888)"/><path class="x" d="M324.884,1454.129c-5.152,0-13.255-2.1-13.621-2.2a.8.8,0,0,1,.274-1.579c.109,0,11,.943,15.256-2.41,5.373-4.239,2.37-11.162-2.6-22.637-2.1-4.846-4.483-10.338-6.669-16.69-4.147-12.039.307-20.316,4.773-25.136,9.375-10.124,27.645-14.479,43.438-10.358a.8.8,0,0,1-.406,1.556c-.369-.1-.738-.188-1.111-.274-20.092.33-33.058,5-38.53,13.845-4.79,7.75-3.8,18.79,2.931,32.82,6.573,13.69,8.337,23.32,5.245,28.621-1.536,2.637-4.286,4.15-7.948,4.394A7.412,7.412,0,0,1,324.884,1454.129Zm-5.911-2.209a32.5,32.5,0,0,0,6.834.573c3.148-.211,5.393-1.421,6.666-3.6,1.932-3.3,2.578-10.7-5.3-27.114-6.989-14.554-7.948-26.112-2.851-34.36,4.945-8.007,15.494-12.764,31.386-14.175-12.527-.58-25.087,3.626-32.233,11.34-5.977,6.455-7.51,14.587-4.434,23.524,2.169,6.29,4.536,11.752,6.626,16.572,5.1,11.765,8.469,19.535,2.123,24.536C325.632,1450.9,322.168,1451.63,318.973,1451.921Z" transform="translate(-276.606 -1304.137)"/></g><g class="y" transform="translate(435.905 91.22)"><circle class="e" cx="50.437" cy="50.437" r="50.437" transform="translate(0 0)"/><path class="z" d="M1566.249,296.765c-.125-.376-3.26-18.368-3.626-25.383s11.238-7.984,11.238-7.984,9.5-5.123,16.37-2.5a27.765,27.765,0,0,1,14.673,12.527c3.135,5.489-2.749,22.634-2.749,22.634Z" transform="translate(-1531.418 -250.983)"/><path class="aa" d="M1508.286,492.124c-.046-.293.8-7.378.831-7.664,1.582-14.91,19.964-19.12,38.306-19.12,21.549,0,36.17,3.956,38.5,19.45.069.455,1.319,7.556,1.249,8.034C1547.235,493.374,1508.286,492.124,1508.286,492.124Z" transform="translate(-1494.998 -388.531)"/><path class="g" d="M1609.733,404.835c-2.133,3.151-3.7,3.3-6.016,0-1.843-2.611-8-8.571-8-11.574l2.525-30a5.489,5.489,0,0,1,5.472-5.472h6.016a5.489,5.489,0,0,1,5.472,5.472l1.174,30C1616.379,396.27,1611.635,402.006,1609.733,404.835Z" transform="translate(-1553.61 -316.435)"/><path class="k" d="M1610.424,357.76h-6.01a5.489,5.489,0,0,0-5.472,5.472l-2.192,26.619c6.758,2.153,15.883-2.219,19.918-7.038l-.765-19.581A5.489,5.489,0,0,0,1610.424,357.76Z" transform="translate(-1554.3 -316.415)"/><path class="ab" d="M1566.45,470.827l9.649,17.831s5.166-4.249,5.663-3.415-.917,11.347-.917,11.347,11.5.155,12-.33-2.331-11.419-1.167-11.419,4.674,3.165,4.674,3.165l10.773-17.178-2.367-.577-17.65,9.494-18.879-9.286Z" transform="translate(-1533.989 -391.822)"/><path class="i" d="M1599.92,491.607l7.166,4.81-2.222,12.761,9.666-.541-2.413-11.607,5.937-5.423-2.789-2.627h-12.553Z" transform="translate(-1556.426 -404.378)"/><path class="aa" d="M1579.214,443.848l-8.864,8.432s9.029,16.061,9.53,16.061,7.661-8.838,7.661-8.838l4.585-.079,7.253,7.6,8.419-14.89-8.571-9.1s-7.328,14.175-8.663,14.5-1.342.5-2.42-.33S1579.214,443.848,1579.214,443.848Z" transform="translate(-1536.604 -373.575)"/><ellipse class="g" cx="18.19" cy="24.787" rx="18.19" ry="24.787" transform="translate(34.927 16.865)"/><path class="g" d="M1559.981,347.865c1.7,3.583,1.144,7.4-1.243,8.541s-5.7-.85-7.4-4.434-1.147-7.407,1.243-8.541S1558.28,344.282,1559.981,347.865Z" transform="translate(-1523.195 -306.596)"/><path class="g" d="M1674.146,347.865c-1.7,3.583-1.144,7.4,1.243,8.541s5.706-.85,7.407-4.434,1.144-7.407-1.246-8.541S1675.847,344.282,1674.146,347.865Z" transform="translate(-1605.523 -306.596)"/><path class="z" d="M1581.251,286.792c7.5-5.248,10.879-4.374,16.483,4.246s12.382,8.762,12.382,8.762l.874-8.94s-8.373-16.2-19.618-14.079-17.64,12.247-17.64,12.247-.547,18.972,1.022,19.618,1.751-6.122,2.875-7.5-1.124-7.872.376-10.879S1581.251,286.792,1581.251,286.792Z" transform="translate(-1538.808 -262.002)"/><path class="z" d="M1669.89,337.1c2.617,2.868,1.622,14.244,3,14.122s1.876-10.879,1.5-12S1669.89,337.1,1669.89,337.1Z" transform="translate(-1603.33 -302.566)"/></g><g class="y" transform="translate(1.319 241.781)"><circle class="e" cx="50.437" cy="50.437" r="50.437" transform="translate(0 0)"/><path class="u" d="M214.66,982.21c6.1-13.124,16.427-17.33,33.381-17.33,20.191,0,33.562,12.468,36.535,23.115C248.42,988.49,214.66,982.21,214.66,982.21Z" transform="translate(-204.147 -884.87)"/><path class="x" d="M242.657,770.042c-8.548,2.4-8.172,7.2-11.02,11.66s-9.039,7.43-9.784,10.4,1.909,9.164-1.236,12.629-4.21,5.2-2.967,8.667,3.956,8.9,4.21,9.659,3.715,5.934,7.912,6.685,12.135,1.978,16.1,3.715,16.7-2.219,23.775-1.978,11.887-4.945,11.389-8.429,5.215-10.4,5.2-16.344c-.016-6.382-7.43-11.142-9.412-15.352s.247-11.64-7.18-16.041c-4.694-2.782-7.912-2.532-11.64-3.771S248.1,768.512,242.657,770.042Z" transform="translate(-205.812 -753.866)"/><path class="g" d="M304.954,910.068c-1.935,2.852-3.353,2.967-5.449,0-1.668-2.364-4.945-7.734-4.945-10.457V872.425a4.968,4.968,0,0,1,4.945-4.945h5.449a4.968,4.968,0,0,1,4.945,4.945v27.2C309.905,902.334,306.688,907.506,304.954,910.068Z" transform="translate(-257.708 -819.578)"/><path class="k" d="M304.954,867.46H299.5a4.968,4.968,0,0,0-4.945,4.945v24.256c6.108,1.965,11.683-1.915,15.345-6.276V872.411A4.968,4.968,0,0,0,304.954,867.46Z" transform="translate(-257.708 -819.565)"/><ellipse class="g" cx="16.469" cy="22.439" rx="16.469" ry="22.439" transform="translate(28.05 25.729)"/><path class="x" d="M288.749,796.108c-10.4,17.584-25.749,15.85-25.749,15.85s.372-23.277,12.57-24.516,19.377,3.656,21.853,11.732,0,13.4,0,13.4a21.372,21.372,0,0,1-5.934-8.05A57.625,57.625,0,0,1,288.749,796.108Z" transform="translate(-236.552 -765.797)"/><path class="g" d="M255.266,858.493c1.54,3.244,1.038,6.705-1.124,7.734s-5.166-.771-6.705-4.015-1.035-6.7,1.127-7.73S253.72,855.253,255.266,858.493Z" transform="translate(-225.522 -810.67)"/><path class="g" d="M358.6,858.493c-1.539,3.244-1.035,6.705,1.127,7.734s5.162-.771,6.7-4.015,1.035-6.7-1.124-7.73S360.137,855.253,358.6,858.493Z" transform="translate(-300.038 -810.67)"/></g><g class="ac" transform="translate(77.171 0)"><circle class="e" cx="126.044" cy="126.044" r="126.044" transform="translate(0 178.255) rotate(-45)"/><path class="ad" d="M3065.579,505.33c0,34.636,20.875,90.511,70.046,88.725s60.073-55.063,61.982-70.1S3065.579,505.33,3065.579,505.33Z" transform="translate(-2952.936 -345.733)"/><path class="u" d="M3039.069,666.213c16.236-34.946,43.729-46.133,88.911-46.133,53.749,0,81.659,19.468,89.568,47.818-31.621.433-61.735,31.876-87.906,31.637C3076.126,699.048,3039.069,666.213,3039.069,666.213Z" transform="translate(-2946.922 -371.766)"/><path class="s" d="M3157.436,622.887c-5.141,7.6-8.914,7.917-14.5,0-4.437-6.286-13.182-20.581-13.182-27.833V522.673a13.22,13.22,0,0,1,13.182-13.143h14.5a13.227,13.227,0,0,1,13.189,13.143v72.381C3170.625,602.306,3162.051,616.076,3157.436,622.887Z" transform="translate(-2967.494 -346.686)"/><path class="v" d="M3157.436,509.48h-14.5a13.221,13.221,0,0,0-13.182,13.143V587.2c16.282,5.188,31.149-5.118,40.875-16.731V522.662a13.228,13.228,0,0,0-13.189-13.182Z" transform="translate(-2967.494 -346.675)"/><path class="s" d="M3187.159,492.9c0,32.99-19.63,59.74-43.845,59.74s-43.844-26.751-43.844-59.74,19.63-59.74,43.844-59.74S3187.159,459.9,3187.159,492.9Z" transform="translate(-2960.625 -329.361)"/><path class="ad" d="M3159.683,440.927c-5.211,18.378-16.63,18.161-32.549,24.2s-23.526,12.1-28.737,23.851c-6.641,14.991,3.015,58.689,3.015,58.689s-40.3-30.152-35.642-77.608,32.627-65.809,58.952-65.809,36.337,16.035,36.337,16.035,14.025.062,27.284,15.772c17.782,21.114,12.37,72.4,0,90.766s-20.566,24.13-20.3,23.31,11.52-43.017,5.489-69.1S3159.683,440.927,3159.683,440.927Z" transform="translate(-2952.895 -322.802)"/></g><path class="ae" d="M696.764,409.019a126.208,126.208,0,1,1,49.273-9.949,126.208,126.208,0,0,1-49.273,9.949Zm0-250.536a123.95,123.95,0,1,0,123.95,123.95A124.089,124.089,0,0,0,696.764,158.483Z" transform="translate(-441.504 -103.434)"/><path class="ae" d="M308.517,1373.356a105.189,105.189,0,1,1,74.38-30.809A105.189,105.189,0,0,1,308.517,1373.356Zm0-207.744a102.553,102.553,0,1,0,102.552,102.555,102.672,102.672,0,0,0-102.552-102.555Z" transform="translate(-195.225 -775.876)"/><path class="ae" d="M1515.755,331.851a51.756,51.756,0,1,1,51.756-51.755A51.814,51.814,0,0,1,1515.755,331.851Zm0-100.874a49.118,49.118,0,1,0,49.118,49.118A49.173,49.173,0,0,0,1515.755,230.977Z" transform="translate(-1029.407 -138.438)"/><path class="ae" d="M230.525,821.681a51.756,51.756,0,1,1,51.756-51.756A51.814,51.814,0,0,1,230.525,821.681Zm0-100.874a49.118,49.118,0,1,0,49.118,49.118A49.173,49.173,0,0,0,230.525,720.807Z" transform="translate(-178.77 -477.708)"/><path class="ae" d="M677.182,369.8a106.6,106.6,0,1,1,41.619-8.4A106.6,106.6,0,0,1,677.182,369.8Zm0-211.616A104.694,104.694,0,1,0,781.876,262.883,104.812,104.812,0,0,0,677.182,158.189Z" transform="translate(-222.078 103.431)"/></g></g></svg>