<svg xmlns="http://www.w3.org/2000/svg" width="277.062" height="465.007" viewBox="0 0 277.062 465.007"><defs><style>.a,.e,.k{fill:#407bff;}.b,.d{fill:#fff;}.b{opacity:0.8;}.c{fill:#4669b2;}.e{opacity:0.1;}.f{fill:#263238;}.g{fill:#ffc3bd;}.h{fill:#5985c4;}.i{fill:#90bbe4;}.j,.k{opacity:0.2;}</style></defs><path class="a" d="M417.993,540H221.4a26.355,26.355,0,0,1-26.535-28.192l23.892-408.621A30.372,30.372,0,0,1,248.617,75H445.26a26.355,26.355,0,0,1,26.535,28.192l-23.966,408.62A30.372,30.372,0,0,1,417.993,540Z" transform="translate(-194.797 -74.999)"/><path class="b" d="M417.993,540H221.4a26.355,26.355,0,0,1-26.535-28.192l23.892-408.621A30.372,30.372,0,0,1,248.617,75H445.26a26.355,26.355,0,0,1,26.535,28.192l-23.966,408.62A30.372,30.372,0,0,1,417.993,540Z" transform="translate(-194.797 -74.999)"/><path class="c" d="M412.8,528.4H221.665a18.516,18.516,0,0,1-18.65-19.8l23.892-406.844A21.353,21.353,0,0,1,247.811,81.94H438.944a18.531,18.531,0,0,1,18.65,19.815L433.7,508.6A21.338,21.338,0,0,1,412.8,528.4Z" transform="translate(-190.766 -71.576)"/><path class="d" d="M411.418,526.944H220.285a18.531,18.531,0,0,1-18.65-19.815l23.892-406.843A21.353,21.353,0,0,1,246.431,80.47H437.564a18.531,18.531,0,0,1,18.65,19.815L432.323,507.129A21.353,21.353,0,0,1,411.418,526.944Z" transform="translate(-191.447 -72.301)"/><path class="e" d="M401.063,433.484H222.817a11.453,11.453,0,0,1-11.528-12.244l10.034-169.7a13.185,13.185,0,0,1,12.961-12.244H412.456a11.453,11.453,0,0,1,11.528,12.244l-9.96,169.7A13.185,13.185,0,0,1,401.063,433.484Z" transform="translate(-186.676 6.033)"/><path class="e" d="M330.384,103.576H278.435a4.091,4.091,0,0,1-4.121-4.375h0a4.719,4.719,0,0,1,4.644-4.39h51.934a4.091,4.091,0,0,1,4.181,4.39h0A4.7,4.7,0,0,1,330.384,103.576Z" transform="translate(-155.583 -65.229)"/><ellipse class="e" cx="80.739" cy="76.139" rx="80.739" ry="76.139" transform="translate(31.459 149.142) rotate(-44.16)"/><path class="c" d="M259.606,225.833a69.3,69.3,0,0,1-18.62-52.263h1.493A67.867,67.867,0,0,0,260.7,224.713Z" transform="translate(-172.099 -26.382)"/><path class="c" d="M340.406,180.619l-1.493-.09a71.589,71.589,0,0,0-1.493-19.621l1.493-.329A72.3,72.3,0,0,1,340.406,180.619Z" transform="translate(-124.452 -32.789)"/><path class="c" d="M347.023,164.248a67.195,67.195,0,0,0-37.853-35.374l.523-1.4a68.524,68.524,0,0,1,38.689,36.181Z" transform="translate(-138.386 -49.119)"/><ellipse class="c" cx="70.361" cy="66.344" rx="70.361" ry="66.344" transform="translate(45.729 148.939) rotate(-44.16)"/><path class="f" d="M290.86,199.614h0c3.285-.732,4.823-3.539,5.525-6.734.075-.343.134-.672.194-1v-.3a33.956,33.956,0,0,0,.3-4.017,13.021,13.021,0,0,1-11.737-12.752,38.42,38.42,0,0,1,4.091-18.277,4.2,4.2,0,0,0-2.016.836.493.493,0,0,1-.4.09.515.515,0,0,1-.224-.926,5.316,5.316,0,0,1,3.225-1.075c.224-.358.433-.732.657-1.075h-2.777c.986-6.9,14.26-12.692,23.309-7.466,4.032.806,10.691,6.57,10.691,6.57a84.955,84.955,0,0,1-.313,11.005h0c-.6,6.242-2.076,13.573-5.674,17.665a12.991,12.991,0,0,0,.956-6.645,6.958,6.958,0,0,1-3.106,1.777,18.591,18.591,0,0,1-1.493,2.628c-1.4,6.406-2.4,14.932-.269,19.845,1.926.119,3.793.3,5.57.493l.433.075a31.862,31.862,0,0,0,3.375-2.285c13.439-10.453-.821-22.727,2.538-33.971s.523-15.515-8.661-15.873c3.808-6.077-20.383-15.783-31.014,3.076-9.631,17.1-12.737,25.639-9.273,39a17.546,17.546,0,0,0,8.228,10.288,15.738,15.738,0,0,1,2.061-.418C286.947,199.973,288.918,199.764,290.86,199.614Z" transform="translate(-156.032 -42.825)"/><path class="g" d="M275.016,198.586a32.841,32.841,0,0,1-1.493-2.987l-2.986,8.959c-.926,2.688-1.807,5.376-2.733,7.944l-1.389,3.629-.6,1.493c-.209.4,0,.164,0,.284a15.592,15.592,0,0,1-2.105,2.031c-.164.164-.373.314-.552.463a63.461,63.461,0,0,0,13.245,6.824c.1-6.824.941-13.917,1.837-15.813C272.866,207.68,273.672,203.663,275.016,198.586Z" transform="translate(-161.079 -15.516)"/><path class="f" d="M274.723,184.11l-.373.523c.119-.179.254-.343.388-.508Z" transform="translate(-155.56 -21.183)"/><path class="h" d="M273.666,193.848a15.918,15.918,0,0,1,2.852-9.2,72.077,72.077,0,0,0-7.018,14.335s.269.791.836,2.031A32.828,32.828,0,0,0,271.829,204a38.525,38.525,0,0,0,1.837-10.154Z" transform="translate(-157.952 -20.917)"/><path class="i" d="M325.261,217.808a62.865,62.865,0,0,1-4.7-8.168c-.448.239-.911.478-1.389.687-4.48-4.734-8.3-8.556-8.3-8.556-5.585-11.647-2.135-18.277,8.452-20.98a13.917,13.917,0,0,1,4.629,1.867,11.021,11.021,0,0,0-4.689-1.881l-.433-.075c-1.777-.194-3.643-.373-5.57-.493.418,1.09-9.168,14.932-15.186,17.127-2.464-6.212-9.377-6.63-9.377-6.63s-6.451-1.329-8.452,2.733c1.314-8.392,9.392-12.812,12.08-13.439-1.941.164-3.912.373-5.809.612a15.734,15.734,0,0,0-2.061.418,15.007,15.007,0,0,0-7.78,5.137c-.134.164-.269.328-.388.508l-.224.284a15.917,15.917,0,0,0-2.852,9.2A38.528,38.528,0,0,1,271.43,206.3c-1.344,5.017-2.15,9.094,3.121,12.827-.9,1.9-1.732,8.959-1.837,15.813a66.09,66.09,0,0,0,23.19,4.121,70.659,70.659,0,0,0,29.357-6.436,154,154,0,0,1,.134-16.679h0C325.351,216.539,325.291,217.2,325.261,217.808Z" transform="translate(-157.493 -23.21)"/><path class="d" d="M282.66,190.637s6.914.418,9.377,6.63c5.973-2.27,15.6-16.037,15.186-17.127C307.224,180.14,293.62,186.74,282.66,190.637Z" transform="translate(-151.461 -23.141)"/><path class="d" d="M289.1,180h0c-2.688.642-10.766,5.062-12.08,13.439,2-4.062,8.452-2.733,8.452-2.733C283.381,182.852,289.1,180,289.1,180Z" transform="translate(-154.243 -23.21)"/><path class="g" d="M288.94,174.909v0Z" transform="translate(-148.364 -25.869)"/><path class="g" d="M307.655,166.85a18.187,18.187,0,0,1-4.838,4.778,16.037,16.037,0,0,1-2.539,1.493,17.187,17.187,0,0,1-8.317,6.914v-.254c-.7,3.2-2.24,5.973-5.525,6.734,0,0-5.719,2.867-3.658,10.721,10.975-3.9,24.564-10.453,24.564-10.453C305.251,181.8,306.251,173.256,307.655,166.85Z" transform="translate(-151.624 -29.696)"/><path class="f" d="M288.81,175.81c.075-.343.134-.672.194-1C288.944,175.094,288.885,175.467,288.81,175.81Z" transform="translate(-148.428 -25.77)"/><path class="j" d="M288.81,175.81c.075-.343.134-.672.194-1C288.944,175.094,288.885,175.467,288.81,175.81Z" transform="translate(-148.428 -25.77)"/><path class="f" d="M289.269,171.92a33.941,33.941,0,0,1-.3,4.017,31.255,31.255,0,0,0,.3-4.017Z" transform="translate(-148.349 -27.196)"/><path class="j" d="M289.269,171.92a33.941,33.941,0,0,1-.3,4.017,31.255,31.255,0,0,0,.3-4.017Z" transform="translate(-148.349 -27.196)"/><path class="g" d="M297.068,171a14.469,14.469,0,0,1-7.735,1.344,31.244,31.244,0,0,1-.3,4.017v.3a4.923,4.923,0,0,1-.194,1v.254A17.187,17.187,0,0,0,297.068,171Z" transform="translate(-148.413 -27.649)"/><path class="j" d="M297.068,171a14.469,14.469,0,0,1-7.735,1.344,31.244,31.244,0,0,1-.3,4.017v.3a4.923,4.923,0,0,1-.194,1v.254A17.187,17.187,0,0,0,297.068,171Z" transform="translate(-148.413 -27.649)"/><path class="g" d="M300.827,182.456a16.112,16.112,0,0,0,2.548-1.493,18.222,18.222,0,0,0,4.855-4.778,18.561,18.561,0,0,0,1.5-2.628,7.61,7.61,0,0,0-.839.179c-2.5.224-3.207-2.583-2.068-5.092a9.824,9.824,0,0,1,1.5-2.344,9,9,0,0,1,.45-6.45c-2.278-4.659-4.69-8.959-4.915-12.079a64.155,64.155,0,0,1-17.293,2.822c-.225.343-.435.717-.659,1.075a4.992,4.992,0,0,1,1.5.224.507.507,0,0,1,.3.657.525.525,0,0,1-.659.314,3.789,3.789,0,0,0-1.663-.119,38.3,38.3,0,0,0-4,18.261,13.039,13.039,0,0,0,11.778,12.751h0a14.566,14.566,0,0,0,7.673-1.3Zm-3.342-29.325a5.121,5.121,0,0,1,3.716,2.986.536.536,0,0,1-.24.7.511.511,0,0,1-.39,0,.449.449,0,0,1-.3-.269,4.1,4.1,0,0,0-3-2.344.538.538,0,0,1-.45-.582.524.524,0,0,1,.659-.463Zm-.524,7.376h0a1.49,1.49,0,0,1,.524,1.657c-.165.866-.764,1.493-1.334,1.359s-.9-.9-.734-1.762a2.014,2.014,0,0,1,.644-1.135,2.258,2.258,0,0,1-1.034-1.135Zm-12.288-.627a2,2,0,0,1,.629-1.12,2.347,2.347,0,0,1-1.019-1.15l1.963,1h0a1.565,1.565,0,0,1,.525,1.657c-.18.866-.764,1.493-1.334,1.374s-.929-.866-.764-1.732Zm3.477,7.257a3.829,3.829,0,0,1-3-1.18,24.034,24.034,0,0,0,4.166-4.927Zm2.892,4a.269.269,0,0,1-.195-.314.255.255,0,0,1,.3-.194,7.061,7.061,0,0,0,6.159-1.613.259.259,0,0,1,.375.358,7.283,7.283,0,0,1-5.125,1.911,10.866,10.866,0,0,1-1.513-.119Z" transform="translate(-152.204 -39.107)"/><path class="f" d="M305.51,156.52Z" transform="translate(-140.191 -34.791)"/><path class="f" d="M301.964,160.514c-.627-1.493-1.344-3.091-2.076-4.584a9.035,9.035,0,0,0-.448,6.451,6.048,6.048,0,0,1,2.523-1.867Z" transform="translate(-143.379 -35.082)"/><path class="g" d="M291.514,156.474a2.421,2.421,0,0,0-.771,1.363c-.2,1.04.2,1.991.879,2.117s1.4-.592,1.6-1.632a1.794,1.794,0,0,0-.628-1.991A1.094,1.094,0,0,1,291.514,156.474Z" transform="translate(-147.719 -35.19)"/><path class="g" d="M285.8,156.76a1.587,1.587,0,0,0-.548-1.7,1.053,1.053,0,0,1-.955.138,2.04,2.04,0,0,0-.658,1.149c-.172.888.172,1.7.767,1.822S285.531,157.648,285.8,156.76Z" transform="translate(-151.107 -35.589)"/><path class="g" d="M285.309,155.482h0l-2.019-1.092a2.519,2.519,0,0,0,1.048,1.255.972.972,0,0,0,.971-.163Z" transform="translate(-151.15 -35.953)"/><path class="g" d="M283.9,162.073a4.007,4.007,0,0,0,3.181,1.286l1.257-6.659a26.042,26.042,0,0,1-4.438,5.373Z" transform="translate(-151.009 -35.255)"/><path class="g" d="M294.471,162.025a.269.269,0,0,0-.373,0,7.018,7.018,0,0,1-6.107,1.613.254.254,0,0,0-.3.194.269.269,0,0,0,.194.314,10.785,10.785,0,0,0,1.493.149,7.242,7.242,0,0,0,5.107-1.911.269.269,0,0,0-.015-.358Z" transform="translate(-148.982 -32.113)"/><path class="g" d="M302.5,159a6.049,6.049,0,0,0-2.523,1.867,9.826,9.826,0,0,0-1.493,2.344c-1.135,2.509-.433,5.316,2.061,5.092a4.421,4.421,0,0,0,.836-.179,6.958,6.958,0,0,0,3.106-1.777A27.057,27.057,0,0,0,302.5,159Z" transform="translate(-143.916 -33.568)"/><path class="f" d="M303.273,147.773c.09-2.15,1.314-2.673,2.986-2.344-9.049-5.286-22.324.508-23.309,7.466h2.777a63.714,63.714,0,0,0,17.232-2.822A4.764,4.764,0,0,1,303.273,147.773Z" transform="translate(-151.318 -41.275)"/><path class="f" d="M296.672,147.124a4.763,4.763,0,0,0-.314,2.24c.224,3.166,2.628,7.466,4.9,12.08a47.168,47.168,0,0,1,2.076,4.584,27.059,27.059,0,0,1,1.986,7.347,12.992,12.992,0,0,1-.956,6.645c3.6-4.091,5.077-11.423,5.674-17.665h0a84.96,84.96,0,0,0,.314-11.005s-6.66-5.764-10.691-6.57C297.986,144.451,296.761,144.974,296.672,147.124Z" transform="translate(-144.717 -40.626)"/><path class="g" d="M292.177,152.648a4.685,4.685,0,0,1,3.373,2.825.519.519,0,0,0,.337.324.54.54,0,0,0,.439,0,.669.669,0,0,0,.27-.846,5.861,5.861,0,0,0-4.182-3.6.6.6,0,0,0-.658.54A.653.653,0,0,0,292.177,152.648Z" transform="translate(-147.263 -37.584)"/><path class="g" d="M286.823,151.831a.535.535,0,0,0,.69-.368A.66.66,0,0,0,287.5,151a.561.561,0,0,0-.3-.312,4.7,4.7,0,0,0-1.567-.263,5.205,5.205,0,0,0-3.385,1.261.682.682,0,0,0-.11.858.556.556,0,0,0,.345.228.476.476,0,0,0,.423-.105,4.17,4.17,0,0,1,2.116-.981A3.552,3.552,0,0,1,286.823,151.831Z" transform="translate(-151.77 -37.874)"/><path class="g" d="M291.755,157.361a.964.964,0,0,0,1.112-.182h0l-2.427-1.52a3.234,3.234,0,0,0,1.315,1.7Z" transform="translate(-147.865 -35.652)"/><path class="f" d="M308.7,208.112c0-.612.09-1.269.119-1.9-.836-1.329-1.687-2.673-2.568-4l-1.717-2.553-.538.284a62.864,62.864,0,0,0,4.7,8.168Z" transform="translate(-140.936 -13.514)"/><path class="j" d="M308.7,208.112c0-.612.09-1.269.119-1.9-.836-1.329-1.687-2.673-2.568-4l-1.717-2.553-.538.284a62.864,62.864,0,0,0,4.7,8.168Z" transform="translate(-140.936 -13.514)"/><path class="g" d="M312.946,225.28v.239a74.08,74.08,0,0,0,16.306-11.946,64.522,64.522,0,0,0-2.867-7.063,99.5,99.5,0,0,0-4.823-9.124c-1.493-2.568-3.076-5.017-4.7-7.466-1.493,3.121-5.734,10.632-12.468,14.5l1.717,2.553c.881,1.329,1.732,2.673,2.568,4h0c.732,1.165,1.493,2.344,2.105,3.509a48.417,48.417,0,0,1,2.986,5.973l-.149,1.015Q313.349,223.331,312.946,225.28Z" transform="translate(-140.743 -18.318)"/><path class="h" d="M298.385,201.51s3.823,3.823,8.3,8.556c.478-.209.941-.448,1.389-.687l.538-.284c6.734-3.867,10.945-11.378,12.468-14.5.433-.881.657-1.419.657-1.419s-4.33-7.167-10.273-10.781a13.915,13.915,0,0,0-4.629-1.867C296.249,183.233,292.8,189.863,298.385,201.51Z" transform="translate(-145.011 -22.949)"/><path class="c" d="M346.128,95.676h21.04a2.3,2.3,0,0,0,2.255-2.135h0a1.986,1.986,0,0,0-2-2.12H346.367a2.3,2.3,0,0,0-2.255,2.12h0a1.986,1.986,0,0,0,2.016,2.135Z" transform="translate(-121.154 -66.9)"/><path class="c" d="M345.837,100.591h21.04a2.3,2.3,0,0,0,2.255-2.135h0a1.986,1.986,0,0,0-2-2.135h-21.04a2.3,2.3,0,0,0-2.27,2.135h0a2.016,2.016,0,0,0,2.016,2.135Z" transform="translate(-121.297 -64.483)"/><path class="c" d="M231.842,100.591h21.04a2.314,2.314,0,0,0,2.27-2.135h0a2,2,0,0,0-2.016-2.135H232.1a2.285,2.285,0,0,0-2.255,2.135h0a2,2,0,0,0,2,2.135Z" transform="translate(-177.515 -64.483)"/><path class="c" d="M345.547,105.491h21.084a2.3,2.3,0,0,0,2.27-2.135h0a2.016,2.016,0,0,0-2.016-2.135H345.8a2.315,2.315,0,0,0-2.27,2.135h0a2,2,0,0,0,2.016,2.135Z" transform="translate(-121.44 -62.067)"/><path class="d" d="M374.147,295.663H246.865a17.232,17.232,0,0,1-17.351-18.426h0A19.86,19.86,0,0,1,249.03,258.81H376.313a17.232,17.232,0,0,1,17.351,18.426h0a19.86,19.86,0,0,1-19.516,18.426Z" transform="translate(-177.694 15.66)"/><path class="d" d="M372.212,328.823h-127.3a17.262,17.262,0,0,1-17.351-18.441h0A19.86,19.86,0,0,1,247.08,292h127.3a17.232,17.232,0,0,1,17.351,18.426h0A19.875,19.875,0,0,1,372.212,328.823Z" transform="translate(-178.656 32.03)"/><path class="d" d="M370.257,362H242.975a17.232,17.232,0,0,1-17.351-18.426h0A19.875,19.875,0,0,1,245.14,325.13H372.422a17.247,17.247,0,0,1,17.351,18.441h0A19.86,19.86,0,0,1,370.257,362Z" transform="translate(-179.613 48.371)"/><ellipse class="c" cx="9.781" cy="9.213" rx="9.781" ry="9.213" transform="translate(59.205 293.098) rotate(-44.16)"/><path class="c" d="M246.629,298.613l1.254,4.734a1.224,1.224,0,0,0,1.195.9h4.972a1.284,1.284,0,0,1,.642,2.389l-4.2,2.986a1.374,1.374,0,0,0-.567,1.493l1.254,4.734a1.374,1.374,0,0,1-2.105,1.493l-3.853-2.986a1.3,1.3,0,0,0-1.493,0l-4.2,2.986a1.254,1.254,0,0,1-1.926-1.493l1.807-4.733a1.254,1.254,0,0,0-.388-1.493l-3.853-2.986a1.359,1.359,0,0,1,.911-2.389h4.972a1.389,1.389,0,0,0,1.3-.9l1.747-4.734a1.314,1.314,0,0,1,2.524,0Z" transform="translate(-175.114 34.825)"/><path class="c" d="M250.428,335.891l-.791,13.29a2.21,2.21,0,0,1-2.2,2.061H235.809A1.926,1.926,0,0,1,234,349.15l.971-16.545a2.21,2.21,0,0,1,2.18-2.076h8.362Z" transform="translate(-175.464 51.034)"/><path class="d" d="M242.234,331.758l5.032,5.331H244a1.926,1.926,0,0,1-1.941-2.061l.179-3.27M240.9,328.1l-.209,3.569-.194,3.27a3.569,3.569,0,0,0,.941,2.613,3.494,3.494,0,0,0,2.553,1.09h6.839l-2.449-2.613-5.017-5.331-2.464-2.6Z" transform="translate(-172.257 49.836)"/><path class="k" d="M355.9,271.813H260.644a2.807,2.807,0,0,1-2.822-2.986h0A3.24,3.24,0,0,1,261,265.84H356.24a2.807,2.807,0,0,1,2.822,2.986h0A3.225,3.225,0,0,1,355.9,271.813Z" transform="translate(-163.714 19.128)"/><path class="k" d="M338.036,278.453H260.269a2.822,2.822,0,0,1-2.837-2.986h0a3.24,3.24,0,0,1,3.18-2.986h77.767a2.807,2.807,0,0,1,2.837,2.986h0a3.255,3.255,0,0,1-3.181,2.987Z" transform="translate(-163.907 22.403)"/><path class="k" d="M331.133,305.62H304.852a3.225,3.225,0,0,0-3.181,2.986h0a2.807,2.807,0,0,0,2.822,2.987h26.281a3.225,3.225,0,0,0,3.181-2.987h0a2.807,2.807,0,0,0-2.822-2.986Z" transform="translate(-142.087 38.748)"/><path class="k" d="M312.265,305.62H258.673a3.226,3.226,0,0,0-3.181,2.986h0a2.792,2.792,0,0,0,2.822,2.987h53.607a3.24,3.24,0,0,0,3.181-2.987h0a2.807,2.807,0,0,0-2.837-2.986Z" transform="translate(-164.864 38.748)"/><path class="k" d="M336.834,299H259.052a3.225,3.225,0,0,0-3.181,2.986h0a2.807,2.807,0,0,0,2.822,2.987h77.767a3.24,3.24,0,0,0,3.181-2.987h0A2.807,2.807,0,0,0,336.834,299Z" transform="translate(-164.676 35.483)"/><path class="k" d="M351.96,338.78H256.723a3.255,3.255,0,0,0-3.181,2.986h0a2.807,2.807,0,0,0,2.837,2.987h95.238a3.225,3.225,0,0,0,3.166-2.986h0a2.807,2.807,0,0,0-2.822-2.986Z" transform="translate(-165.826 55.103)"/><path class="k" d="M334.88,332.15H257.112a3.24,3.24,0,0,0-3.181,2.986h0a2.807,2.807,0,0,0,2.822,2.986h77.782a3.225,3.225,0,0,0,3.166-2.986h0a2.807,2.807,0,0,0-2.822-2.986Z" transform="translate(-165.633 51.833)"/></svg>