<svg xmlns="http://www.w3.org/2000/svg" width="36" height="537" viewBox="0 0 36 537">
<defs>
<style>
.a{fill:#484a9f;stroke:#afd7f2;}
.b{fill:none;stroke:#898989;}
.c{fill:#e3e4f1;opacity:0.278;}
.d{fill:#afd7f2;}
.e{fill:#b8b9da;}
.f{fill:#6f6f6f;}
</style>
</defs>
<g transform="translate(-109 -362)">
<path class="a" d="M-345,5946v99.324" transform="translate(472.252 -5563.325)"/>
<!-- <path class="b" d="M-345,5946v99.324" transform="translate(472.252 -5464.325)"/>  -->
<!-- <path class="b" d="M-345,5946v99.324" transform="translate(472.252 -5358.325)"/> -->
<!-- <path class="b" d="M-345,5946v99.324" transform="translate(472.252 -5266)"/> -->
<path class="b" d="M-345,5946v99.324" transform="translate(472 -5164.325)"/>
<g transform="translate(-1678 0.325)">
<!-- <path class="c" d="M31.5,0,42,18,31.5,36h-21L0,18,10.5,0Z" transform="translate(1823 361.675) rotate(90)"/> -->
<!-- <path class="d" d="M18,0l6,10L18,20H6L0,10,6,0Z" transform="translate(1815 371.675) rotate(90)"/> -->
</g>
<!-- <g transform="translate(-1674.841 102.484)">
<circle class="e" cx="7.841" cy="7.841" r="7.841" transform="translate(1794.252 371.675)"/>
</g> -->
<!-- <path class="f" d="M18,0l6,10L18,20H6L0,10,6,0Z" transform="translate(137 472) rotate(90)"/> -->
<path class="f" d="M18,0l6,10L18,20H6L0,10,6,0Z" transform="translate(137 668) rotate(90)"/>
<!-- <path class="f" d="M18,0l6,10L18,20H6L0,10,6,0Z" transform="translate(137 767) rotate(90)"/>
<path class="f" d="M18,0l6,10L18,20H6L0,10,6,0Z" transform="translate(137 875) rotate(90)"/> -->
</g>
</svg>